<svg width="38" height="38" viewBox="0 0 38 38" fill="none" xmlns="http://www.w3.org/2000/svg">
<path d="M0 14.25C0 12.9902 0.500445 11.782 1.39124 10.8912C2.28204 10.0004 3.49022 9.5 4.75 9.5H33.25C34.5098 9.5 35.718 10.0004 36.6088 10.8912C37.4996 11.782 38 12.9902 38 14.25V21.375C38 22.6348 37.4996 23.843 36.6088 24.7338C35.718 25.6246 34.5098 26.125 33.25 26.125H22.0139C22.3559 26.5098 22.7976 26.8945 23.275 27.2531C23.9562 27.7604 24.6765 28.2131 25.4291 28.6069L25.4624 28.6211L25.4695 28.6259C25.7086 28.7457 25.9002 28.9427 26.0133 29.185C26.1265 29.4272 26.1546 29.7006 26.093 29.9608C26.0315 30.2211 25.8839 30.4529 25.6742 30.6188C25.4645 30.7847 25.2049 30.875 24.9375 30.875H13.0625C12.7951 30.875 12.5355 30.7847 12.3258 30.6188C12.1161 30.4529 11.9685 30.2211 11.907 29.9608C11.8454 29.7006 11.8735 29.4272 11.9867 29.185C12.0998 28.9427 12.2914 28.7457 12.5305 28.6259L12.5376 28.6211L12.5709 28.6045C12.787 28.4946 12.9993 28.3774 13.2074 28.253C13.7317 27.9487 14.2384 27.6148 14.725 27.2531C15.2 26.8969 15.6441 26.5098 15.9861 26.125H4.75C3.49022 26.125 2.28204 25.6246 1.39124 24.7338C0.500445 23.843 0 22.6348 0 21.375V14.25ZM4.75 11.875C4.12011 11.875 3.51602 12.1252 3.07062 12.5706C2.62522 13.016 2.375 13.6201 2.375 14.25V21.375C2.375 22.0049 2.62522 22.609 3.07062 23.0544C3.51602 23.4998 4.12011 23.75 4.75 23.75H33.25C33.8799 23.75 34.484 23.4998 34.9294 23.0544C35.3748 22.609 35.625 22.0049 35.625 21.375V14.25C35.625 13.6201 35.3748 13.016 34.9294 12.5706C34.484 12.1252 33.8799 11.875 33.25 11.875H4.75Z" fill="white"/>
<path d="M19 15.4375C18.3701 15.4375 17.766 15.6877 17.3206 16.1331C16.8752 16.5785 16.625 17.1826 16.625 17.8125C16.625 18.4424 16.8752 19.0465 17.3206 19.4919C17.766 19.9373 18.3701 20.1875 19 20.1875C19.6299 20.1875 20.234 19.9373 20.6794 19.4919C21.1248 19.0465 21.375 18.4424 21.375 17.8125C21.375 17.1826 21.1248 16.5785 20.6794 16.1331C20.234 15.6877 19.6299 15.4375 19 15.4375ZM14.25 17.8125C14.25 16.5527 14.7504 15.3445 15.6412 14.4537C16.532 13.5629 17.7402 13.0625 19 13.0625C20.2598 13.0625 21.468 13.5629 22.3588 14.4537C23.2496 15.3445 23.75 16.5527 23.75 17.8125C23.75 19.0723 23.2496 20.2805 22.3588 21.1713C21.468 22.0621 20.2598 22.5625 19 22.5625C17.7402 22.5625 16.532 22.0621 15.6412 21.1713C14.7504 20.2805 14.25 19.0723 14.25 17.8125ZM30.875 17.8125C30.875 18.1274 30.7499 18.4295 30.5272 18.6522C30.3045 18.8749 30.0024 19 29.6875 19C29.3726 19 29.0705 18.8749 28.8478 18.6522C28.6251 18.4295 28.5 18.1274 28.5 17.8125C28.5 17.4976 28.6251 17.1955 28.8478 16.9728C29.0705 16.7501 29.3726 16.625 29.6875 16.625C30.0024 16.625 30.3045 16.7501 30.5272 16.9728C30.7499 17.1955 30.875 17.4976 30.875 17.8125Z" fill="white"/>
</svg>
