<svg width="98" height="52" viewBox="0 0 98 52" fill="none" xmlns="http://www.w3.org/2000/svg">
<rect y="6.00977" width="98" height="46" rx="23" fill="#00A9E0"/>
<path d="M33.0799 13.011C32.7891 13.025 32.5146 13.1605 32.3134 13.3891C32.1123 13.6177 32 13.9218 32 14.2382C32 14.5545 32.1123 14.8586 32.3134 15.0872C32.5146 15.3158 32.7891 15.4512 33.0799 15.4653H37.4348C39.2412 20.496 41.0228 25.5376 42.8169 30.5768L41.1675 35.0383C41.0998 35.2259 41.0736 35.4282 41.0909 35.6288C41.1082 35.8295 41.1687 36.0229 41.2673 36.1936C41.3662 36.359 41.5012 36.4952 41.6602 36.5902C41.8192 36.6852 41.9974 36.7361 42.1789 36.7383H60.3712C60.6706 36.7383 60.9578 36.609 61.1696 36.3789C61.3813 36.1487 61.5003 35.8366 61.5003 35.5112C61.5003 35.1857 61.3813 34.8735 61.1696 34.6434C60.9578 34.4132 60.6706 34.2839 60.3712 34.2839H43.8148L44.7589 31.7528L62.2818 30.1807C62.5147 30.1521 62.7337 30.0459 62.9088 29.8765C63.0838 29.7072 63.2064 29.4831 63.2595 29.235L65.4426 18.5973C65.4717 18.4215 65.4664 18.2411 65.4271 18.0676C65.3879 17.8942 65.3155 17.7316 65.2148 17.5905C65.114 17.4494 64.9871 17.333 64.8423 17.2486C64.6975 17.1642 64.5379 17.1139 64.3741 17.1008H40.3692L39.1862 13.7763C39.1052 13.5554 38.9664 13.3652 38.7871 13.229C38.6078 13.0928 38.3958 13.0166 38.1771 13.0098L33.0799 13.011ZM41.2449 19.5576H62.9972L61.303 27.8165L44.7084 29.2996L41.2449 19.5576ZM45.8151 37.5524C45.0652 37.5247 44.3247 37.7411 43.6887 38.1739C43.0527 38.6066 42.5502 39.236 42.2455 39.9813C41.9408 40.7265 41.8478 41.5538 41.9786 42.3568C42.1093 43.1599 42.4578 43.9022 42.9793 44.4885C43.5008 45.0749 44.1716 45.4787 44.9056 45.6479C45.6396 45.8172 46.4034 45.7442 47.099 45.4385C47.7947 45.1328 48.3904 44.6083 48.8099 43.9321C49.2294 43.2559 49.4536 42.459 49.4535 41.6434C49.4653 40.5781 49.0897 39.5507 48.4084 38.7847C47.7271 38.0186 46.7951 37.5758 45.8151 37.5524ZM56.7316 37.5524C55.9817 37.5247 55.2413 37.7411 54.6053 38.1739C53.9693 38.6066 53.4667 39.236 53.162 39.9813C52.8573 40.7265 52.7644 41.5538 52.8951 42.3568C53.0259 43.1599 53.3743 43.9022 53.8958 44.4885C54.4173 45.0749 55.0881 45.4787 55.8221 45.6479C56.5561 45.8172 57.3199 45.7442 58.0155 45.4385C58.7112 45.1328 59.307 44.6083 59.7265 43.9321C60.146 43.2559 60.3701 42.459 60.3701 41.6434C60.3818 40.5781 60.0062 39.5507 59.3249 38.7847C58.6436 38.0186 57.7117 37.5758 56.7316 37.5524ZM45.8151 40.0068C46.1151 39.9961 46.4112 40.083 46.6654 40.2565C46.9197 40.4299 47.1205 40.6819 47.2421 40.9801C47.3638 41.2784 47.4007 41.6093 47.3481 41.9305C47.2956 42.2517 47.156 42.5486 46.9472 42.783C46.7384 43.0174 46.47 43.1787 46.1763 43.2462C45.8827 43.3137 45.5772 43.2844 45.2989 43.162C45.0207 43.0396 44.7824 42.8296 44.6147 42.5591C44.447 42.2885 44.3574 41.9697 44.3575 41.6434C44.3527 41.4318 44.3868 41.2212 44.4578 41.0241C44.5289 40.8269 44.6354 40.6472 44.7711 40.4954C44.9068 40.3435 45.0691 40.2226 45.2484 40.1398C45.4276 40.0569 45.6203 40.0138 45.8151 40.0129V40.0068ZM56.7316 40.0068C57.0316 39.9961 57.3277 40.083 57.582 40.2565C57.8362 40.4299 58.037 40.6819 58.1586 40.9801C58.2803 41.2784 58.3172 41.6093 58.2646 41.9305C58.2121 42.2517 58.0725 42.5486 57.8637 42.783C57.6549 43.0174 57.3865 43.1787 57.0929 43.2462C56.7992 43.3137 56.4937 43.2844 56.2154 43.162C55.9372 43.0396 55.699 42.8296 55.5312 42.5591C55.3635 42.2885 55.2739 41.9697 55.274 41.6434C55.2692 41.4318 55.3033 41.2212 55.3744 41.0241C55.4454 40.8269 55.5519 40.6472 55.6876 40.4954C55.8234 40.3435 55.9856 40.2226 56.1649 40.1398C56.3441 40.0569 56.5368 40.0138 56.7316 40.0129V40.0068Z" fill="white"/>
<rect x="76" y="0.00976562" width="22" height="25" rx="11" fill="#515151"/>
<path d="M91.516 11.7676V13.9355C91.516 15.1009 91.4118 16.084 91.2035 16.8848C90.9952 17.6855 90.6957 18.3301 90.3051 18.8184C89.9145 19.3066 89.4424 19.6615 88.8891 19.8828C88.3422 20.0977 87.7237 20.2051 87.0336 20.2051C86.4867 20.2051 85.9822 20.1367 85.5199 20C85.0577 19.8633 84.641 19.6452 84.2699 19.3457C83.9053 19.0397 83.5928 18.6426 83.3324 18.1543C83.072 17.666 82.8734 17.0736 82.7367 16.377C82.6 15.6803 82.5316 14.8665 82.5316 13.9355V11.7676C82.5316 10.6022 82.6358 9.62565 82.8441 8.83789C83.059 8.05013 83.3617 7.41862 83.7523 6.94336C84.143 6.46159 84.6117 6.11654 85.1586 5.9082C85.712 5.69987 86.3305 5.5957 87.0141 5.5957C87.5674 5.5957 88.0753 5.66406 88.5375 5.80078C89.0062 5.93099 89.4229 6.14258 89.7875 6.43555C90.1521 6.72201 90.4613 7.10612 90.7152 7.58789C90.9757 8.06315 91.1742 8.64583 91.3109 9.33594C91.4477 10.026 91.516 10.8366 91.516 11.7676ZM89.6996 14.2285V11.4648C89.6996 10.8268 89.6605 10.2669 89.5824 9.78516C89.5108 9.29688 89.4034 8.88021 89.2602 8.53516C89.1169 8.1901 88.9346 7.91016 88.7133 7.69531C88.4984 7.48047 88.2478 7.32422 87.9613 7.22656C87.6814 7.1224 87.3656 7.07031 87.0141 7.07031C86.5844 7.07031 86.2035 7.15169 85.8715 7.31445C85.5395 7.4707 85.2595 7.72135 85.0316 8.06641C84.8103 8.41146 84.641 8.86393 84.5238 9.42383C84.4066 9.98372 84.348 10.6641 84.348 11.4648V14.2285C84.348 14.8665 84.3839 15.4297 84.4555 15.918C84.5336 16.4062 84.6475 16.8294 84.7973 17.1875C84.947 17.5391 85.1293 17.8288 85.3441 18.0566C85.559 18.2845 85.8064 18.4538 86.0863 18.5645C86.3728 18.6686 86.6885 18.7207 87.0336 18.7207C87.4763 18.7207 87.8637 18.6361 88.1957 18.4668C88.5277 18.2975 88.8044 18.0339 89.0258 17.6758C89.2536 17.3112 89.4229 16.8457 89.5336 16.2793C89.6443 15.7064 89.6996 15.0228 89.6996 14.2285Z" fill="white"/>
</svg>
