<svg width="12" height="12" viewBox="0 0 12 12" fill="none" xmlns="http://www.w3.org/2000/svg">
<path d="M5.9999 6.69999L3.5499 9.14999C3.45824 9.24166 3.34157 9.28749 3.1999 9.28749C3.05824 9.28749 2.94157 9.24166 2.8499 9.14999C2.75824 9.05833 2.7124 8.94166 2.7124 8.79999C2.7124 8.65833 2.75824 8.54166 2.8499 8.44999L5.2999 5.99999L2.8499 3.54999C2.75824 3.45833 2.7124 3.34166 2.7124 3.19999C2.7124 3.05833 2.75824 2.94166 2.8499 2.84999C2.94157 2.75833 3.05824 2.71249 3.1999 2.71249C3.34157 2.71249 3.45824 2.75833 3.5499 2.84999L5.9999 5.29999L8.4499 2.84999C8.54157 2.75833 8.65824 2.71249 8.7999 2.71249C8.94157 2.71249 9.05824 2.75833 9.1499 2.84999C9.24157 2.94166 9.2874 3.05833 9.2874 3.19999C9.2874 3.34166 9.24157 3.45833 9.1499 3.54999L6.6999 5.99999L9.1499 8.44999C9.24157 8.54166 9.2874 8.65833 9.2874 8.79999C9.2874 8.94166 9.24157 9.05833 9.1499 9.14999C9.05824 9.24166 8.94157 9.28749 8.7999 9.28749C8.65824 9.28749 8.54157 9.24166 8.4499 9.14999L5.9999 6.69999Z" fill="#333333" fill-opacity="0.39"/>
</svg>
