<svg width="40" height="42" viewBox="0 0 40 42" fill="none" xmlns="http://www.w3.org/2000/svg">
<path d="M4.07989 4.60533C3.78914 4.61959 3.5146 4.7567 3.31343 4.98808C3.11227 5.21946 3 5.52729 3 5.84745C3 6.16762 3.11227 6.47545 3.31343 6.70683C3.5146 6.93821 3.78914 7.07524 4.07989 7.0895H8.43484C10.2412 12.1812 12.0228 17.2841 13.8169 22.3845L12.1675 26.9002C12.0998 27.0901 12.0736 27.2948 12.0909 27.4979C12.1082 27.701 12.1687 27.8968 12.2673 28.0696C12.3662 28.2369 12.5012 28.3748 12.6602 28.471C12.8192 28.5672 12.9974 28.6186 13.1789 28.6209H31.3712C31.6706 28.6209 31.9578 28.49 32.1696 28.2571C32.3813 28.0242 32.5003 27.7082 32.5003 27.3788C32.5003 27.0494 32.3813 26.7334 32.1696 26.5005C31.9578 26.2675 31.6706 26.1367 31.3712 26.1367H14.8148L15.7589 23.5748L33.2818 21.9836C33.5147 21.9547 33.7337 21.8472 33.9088 21.6758C34.0838 21.5044 34.2064 21.2775 34.2595 21.0264L36.4426 10.2595C36.4717 10.0816 36.4664 9.89895 36.4271 9.72341C36.3879 9.54788 36.3155 9.38335 36.2148 9.24054C36.114 9.09773 35.9871 8.97985 35.8423 8.89445C35.6975 8.80905 35.5379 8.75809 35.3741 8.74486H11.3692L10.1862 5.37994C10.1052 5.15642 9.96643 4.96392 9.78713 4.82607C9.60782 4.68821 9.39577 4.61106 9.17711 4.60413L4.07989 4.60533ZM12.2449 11.2315H33.9972L32.303 19.5907L15.7084 21.0919L12.2449 11.2315ZM16.8151 29.4449C16.0652 29.4168 15.3247 29.6359 14.6887 30.0739C14.0527 30.5119 13.5502 31.1489 13.2455 31.9032C12.9408 32.6575 12.8478 33.4948 12.9786 34.3077C13.1093 35.1205 13.4578 35.8717 13.9793 36.4652C14.5008 37.0587 15.1716 37.4674 15.9056 37.6387C16.6396 37.81 17.4034 37.7362 18.099 37.4268C18.7947 37.1174 19.3904 36.5864 19.8099 35.902C20.2294 35.2176 20.4536 34.411 20.4535 33.5856C20.4653 32.5073 20.0897 31.4675 19.4084 30.6921C18.7271 29.9167 17.7951 29.4685 16.8151 29.4449ZM27.7316 29.4449C26.9817 29.4168 26.2413 29.6359 25.6053 30.0739C24.9693 30.5119 24.4667 31.1489 24.162 31.9032C23.8573 32.6575 23.7644 33.4948 23.8951 34.3077C24.0259 35.1205 24.3743 35.8717 24.8958 36.4652C25.4173 37.0587 26.0881 37.4674 26.8221 37.6387C27.5561 37.81 28.3199 37.7362 29.0155 37.4268C29.7112 37.1174 30.307 36.5864 30.7265 35.902C31.146 35.2176 31.3701 34.411 31.3701 33.5856C31.3818 32.5073 31.0062 31.4675 30.3249 30.6921C29.6436 29.9167 28.7117 29.4685 27.7316 29.4449ZM16.8151 31.929C17.1151 31.9182 17.4112 32.0062 17.6654 32.1818C17.9197 32.3573 18.1205 32.6123 18.2421 32.9142C18.3638 33.2161 18.4007 33.551 18.3481 33.8761C18.2956 34.2012 18.156 34.5017 17.9472 34.739C17.7384 34.9762 17.47 35.1395 17.1763 35.2078C16.8827 35.2762 16.5772 35.2465 16.2989 35.1226C16.0207 34.9987 15.7824 34.7862 15.6147 34.5124C15.447 34.2385 15.3574 33.9158 15.3575 33.5856C15.3527 33.3714 15.3868 33.1582 15.4578 32.9587C15.5289 32.7592 15.6354 32.5773 15.7711 32.4236C15.9068 32.2699 16.0691 32.1475 16.2484 32.0636C16.4276 31.9798 16.6203 31.9361 16.8151 31.9352V31.929ZM27.7316 31.929C28.0316 31.9182 28.3277 32.0062 28.582 32.1818C28.8362 32.3573 29.037 32.6123 29.1586 32.9142C29.2803 33.2161 29.3172 33.551 29.2646 33.8761C29.2121 34.2012 29.0725 34.5017 28.8637 34.739C28.6549 34.9762 28.3865 35.1395 28.0929 35.2078C27.7992 35.2762 27.4937 35.2465 27.2154 35.1226C26.9372 34.9987 26.699 34.7862 26.5312 34.5124C26.3635 34.2385 26.2739 33.9158 26.274 33.5856C26.2692 33.3714 26.3033 33.1582 26.3744 32.9587C26.4454 32.7592 26.5519 32.5773 26.6876 32.4236C26.8234 32.2699 26.9856 32.1475 27.1649 32.0636C27.3441 31.9798 27.5368 31.9361 27.7316 31.9352V31.929Z" fill="white"/>
<ellipse cx="23" cy="15.5555" rx="3" ry="3.03644" fill="#D9D9D9"/>
<path d="M23 14.0374V15.5556M23 17.0738V15.5556M23 15.5556H21.5H24.5" stroke="black"/>
</svg>
