<svg width="29" height="29" viewBox="0 0 29 29" fill="none" xmlns="http://www.w3.org/2000/svg">
<path d="M6.80285 26.7908C4.57031 26.7908 4.49254 26.7274 4.49254 24.9056L4.4925 24.8777L4.46164 27.0276L6.80285 26.7908Z" fill="white"/>
<path d="M25.1978 9.65792C25.4472 9.65792 25.6513 10.0434 25.6513 10.5146L25.6204 9.89472L25.1978 9.65792Z" fill="white"/>
<path d="M21.4978 9.84615C21.6064 9.70714 21.7438 9.65792 21.9148 9.65792L21.4692 9.89472C21.4684 9.95651 21.4986 9.78247 21.4978 9.84615Z" fill="white"/>
<path d="M25.4666 21.1518C25.3693 21.5234 25.2366 21.7766 25.0115 21.9365H25.6513V20.7255C25.5689 20.8565 25.5066 20.9992 25.4666 21.1518Z" fill="white"/>
<path d="M3.34882 10.5146C3.34882 10.0434 3.60616 9.65792 3.92068 9.65792L3.31792 9.89472L3.34882 10.5146Z" fill="white"/>
<path d="M7.06591 9.65792C7.23251 9.65792 7.59637 9.70026 7.7192 10.0572L7.46917 9.89472L7.06591 9.65792Z" fill="white"/>
<path fill-rule="evenodd" clip-rule="evenodd" d="M18.9972 0.736816C21.403 1.74023 23.2547 4.09486 24.089 7.20906C24.4498 8.5557 24.9485 9.65792 25.1978 9.65792C25.4472 9.65792 25.6513 10.0434 25.6513 10.5146C25.6513 10.9857 26.1345 11.3712 26.7253 11.3712C28.5215 11.3712 29.1539 12.7658 28.9692 16.3203C28.8074 19.4477 28.7039 19.663 27.2823 19.8274C26.5375 19.9133 25.9565 20.24 25.6513 20.7255C25.5689 20.8565 25.5066 20.9992 25.4666 21.1518C25.3693 21.5234 25.2366 21.7766 25.0115 21.9365H21.3624C21.3572 21.7393 21.4491 13.9142 21.4978 9.84615C21.6064 9.70714 21.7438 9.65792 21.9148 9.65792C23.771 9.65792 22.163 4.88298 19.6388 2.9007C18.3933 1.92184 17.2919 1.66256 14.3851 1.66256C9.84228 1.66256 8.69227 2.25079 7.31581 5.27818C6.00339 8.16507 5.91818 9.65792 7.06591 9.65792C7.23251 9.65792 7.59637 9.70026 7.7192 10.0572V21.1247C7.60384 21.5042 7.25003 21.9193 7.09605 22.0015C7.08608 22.0068 7.07604 22.0114 7.06591 22.0153C6.59412 22.1963 6.20812 22.9593 6.20812 23.7109C6.20812 24.836 6.49919 25.0775 7.85393 25.0775C8.75861 25.0775 9.81941 24.692 10.2111 24.2209C11.1387 23.105 15.554 23.0804 16.473 24.1866C16.8487 24.6384 17.0729 25.7309 16.9716 26.6138C16.8195 27.9387 16.4124 28.3111 14.6362 28.7491C12.8114 29.1991 12.2292 29.0912 10.7996 28.0352C9.72162 27.2397 8.73438 26.7908 6.80285 26.7908C4.57031 26.7908 4.49254 26.7274 4.49254 24.9056L4.4925 24.8777C4.48941 23.7954 4.30673 22.816 3.98561 22.013C3.81175 21.5782 3.59731 21.195 3.34882 20.8752C2.88249 20.2749 2.29624 19.8976 1.63325 19.82C0.313969 19.6652 0.190447 19.3945 0.0308985 16.3203C-0.153812 12.7658 0.478664 11.3712 2.27487 11.3712C2.8656 11.3712 3.34882 10.9857 3.34882 10.5146C3.34882 10.0434 3.60616 9.65792 3.92068 9.65792C4.2352 9.65792 4.49254 9.19419 4.49254 8.62766C4.49254 6.4455 7.47822 1.55463 9.29272 0.765943C11.6133 -0.242614 16.6137 -0.258034 18.9972 0.736816ZM5.63626 20.5088H5.0644V15.94V11.3712H5.63626H6.20812V15.94V20.5088H5.63626ZM22.792 11.3712V15.94V20.5088H23.3639H23.9357V15.94V11.3712H23.3639H22.792ZM26.5091 18.2244H25.6513V15.6544V13.0845H26.5091H27.3669V15.6544V18.2244H26.5091ZM11.5722 25.3357C11.0804 26.6149 11.8335 27.3619 13.6148 27.3619C15.375 27.3619 16.2254 26.1723 15.1989 25.1472C14.2839 24.2334 11.949 24.3545 11.5722 25.3357ZM3.34882 13.0845V18.2244H1.63325V13.0845H2.49104H3.34882Z" fill="white"/>
<path d="M7.09605 22.0015H7.7192V21.1247C7.60384 21.5042 7.25003 21.9193 7.09605 22.0015Z" fill="white"/>
<path d="M3.98561 22.013C3.81175 21.5782 3.59731 21.195 3.34882 20.8752V22.0015L3.98561 22.013Z" fill="white"/>
</svg>
