<svg width="40" height="40" viewBox="0 0 40 40" fill="none" xmlns="http://www.w3.org/2000/svg">
<path d="M19.5756 18.5075C21.0629 18.5075 22.5168 18.0844 23.7534 17.2919C24.99 16.4993 25.9539 15.3728 26.523 14.0548C27.0922 12.7368 27.2411 11.2865 26.951 9.88736C26.6608 8.48819 25.9446 7.20297 24.8929 6.19423C23.8413 5.18548 22.5014 4.49851 21.0426 4.2202C19.5839 3.94189 18.0719 4.08473 16.6979 4.63066C15.3238 5.17659 14.1493 6.10109 13.3231 7.28725C12.4968 8.47341 12.0557 9.86795 12.0557 11.2945C12.0516 12.2429 12.2434 13.1826 12.6198 14.0594C12.9963 14.9363 13.55 15.733 14.2491 16.4036C14.9482 17.0742 15.7788 17.6053 16.693 17.9664C17.6072 18.3275 18.5869 18.5114 19.5756 18.5075ZM19.5756 6.75327C20.512 6.75327 21.4274 7.01961 22.2059 7.51861C22.9845 8.01761 23.5914 8.72686 23.9497 9.55667C24.3081 10.3865 24.4018 11.2996 24.2191 12.1805C24.0364 13.0614 23.5855 13.8706 22.9234 14.5057C22.2613 15.1408 21.4177 15.5733 20.4992 15.7485C19.5808 15.9238 18.6289 15.8338 17.7638 15.4901C16.8987 15.1464 16.1592 14.5643 15.639 13.8175C15.1188 13.0707 14.8411 12.1927 14.8411 11.2945C14.836 10.6968 14.955 10.1041 15.1911 9.5509C15.4272 8.99772 15.7758 8.49515 16.2164 8.07247C16.6571 7.6498 17.181 7.31548 17.7578 7.08899C18.3345 6.8625 18.9524 6.74838 19.5756 6.75327Z" fill="white"/>
<path d="M22.6408 20.6454H16.5121C13.2636 20.6502 10.1496 21.8902 7.85255 24.0935C5.55551 26.2968 4.2628 29.2837 4.25774 32.3996C4.24658 32.5778 4.27495 32.7563 4.34099 32.9232C4.40703 33.0901 4.50924 33.2417 4.64085 33.3679C4.77247 33.4942 4.93051 33.5922 5.10454 33.6556C5.27856 33.7189 5.46462 33.7461 5.65042 33.7354C5.83622 33.7461 6.02227 33.7189 6.1963 33.6556C6.37032 33.5922 6.52836 33.4942 6.65998 33.3679C6.79159 33.2417 6.8938 33.0901 6.95984 32.9232C7.02588 32.7563 7.05425 32.5778 7.04309 32.3996C7.04582 29.9915 8.04432 27.6829 9.81952 25.9802C11.5947 24.2774 14.0016 23.3197 16.5121 23.3171H22.6393C25.1498 23.3197 27.5567 24.2774 29.3319 25.9802C31.1071 27.6829 32.1056 29.9915 32.1083 32.3996C32.1083 32.7539 32.255 33.0936 32.5162 33.3442C32.7774 33.5947 33.1316 33.7354 33.501 33.7354C33.8704 33.7354 34.2246 33.5947 34.4858 33.3442C34.7469 33.0936 34.8937 32.7539 34.8937 32.3996C34.8645 29.2911 33.5642 26.3178 31.2727 24.1196C28.9812 21.9213 25.8815 20.6738 22.6408 20.6454Z" fill="white"/>
</svg>
