<svg width="32" height="30" viewBox="0 0 32 30" fill="none" xmlns="http://www.w3.org/2000/svg">
<path d="M16 30C24.8366 30 32 23.2843 32 15C32 6.71573 24.8366 0 16 0C7.16344 0 0 6.71573 0 15C0 23.2843 7.16344 30 16 30Z" fill="black" fill-opacity="0.04"/>
<path d="M14 8.67194C14.3797 8.67194 14.6935 8.93646 14.7432 9.27965L14.75 9.37506V13.1251C14.75 13.481 14.4678 13.7752 14.1018 13.8218L14 13.8282H10C9.6203 13.8282 9.30651 13.5637 9.25685 13.2205L9.25 13.1251V9.37506C9.25 9.0191 9.53215 8.72491 9.89823 8.67835L10 8.67194H14ZM13.75 9.60944H10.25V12.8907H13.75V9.60944Z" fill="black" fill-opacity="0.8"/>
<path d="M22 8.67194C22.3797 8.67194 22.6935 8.93646 22.7432 9.27965L22.75 9.37506V13.1251C22.75 13.481 22.4678 13.7752 22.1018 13.8218L22 13.8282H18C17.6203 13.8282 17.3065 13.5637 17.2568 13.2205L17.25 13.1251V9.37506C17.25 9.0191 17.5322 8.72491 17.8982 8.67835L18 8.67194H22ZM21.75 9.60944H18.25V12.8907H21.75V9.60944Z" fill="black" fill-opacity="0.8"/>
<path d="M14 16.1718C14.3797 16.1718 14.6935 16.4363 14.7432 16.7795L14.75 16.8749V20.6249C14.75 20.9809 14.4678 21.2751 14.1018 21.3216L14 21.3281H10C9.6203 21.3281 9.30651 21.0635 9.25685 20.7203L9.25 20.6249V16.8749C9.25 16.519 9.53215 16.2248 9.89823 16.1782L10 16.1718H14ZM13.75 17.1093H10.25V20.3906H13.75V17.1093Z" fill="black" fill-opacity="0.8"/>
<path d="M22 16.1718C22.3797 16.1718 22.6935 16.4363 22.7432 16.7795L22.75 16.8749V20.6249C22.75 20.9809 22.4678 21.2751 22.1018 21.3216L22 21.3281H18C17.6203 21.3281 17.3065 21.0635 17.2568 20.7203L17.25 20.6249V16.8749C17.25 16.519 17.5322 16.2248 17.8982 16.1782L18 16.1718H22ZM21.75 17.1093H18.25V20.3906H21.75V17.1093Z" fill="black" fill-opacity="0.8"/>
</svg>
