<svg width="28" height="28" viewBox="0 0 28 28" fill="none" xmlns="http://www.w3.org/2000/svg">
<path d="M19.9849 16.6075C19.6524 16.45 18.0599 15.6625 17.7624 15.54C17.4649 15.4175 17.2549 15.3825 17.0274 15.715C16.7999 16.0475 16.1874 16.765 15.9949 16.9925C15.8024 17.22 15.6274 17.2375 15.2949 16.9925C14.3399 16.6092 13.4579 16.0646 12.6874 15.3825C11.9899 14.7258 11.3995 13.9641 10.9374 13.125C10.7449 12.81 10.9374 12.635 11.0774 12.46C11.2174 12.285 11.3924 12.0925 11.5674 11.9C11.6954 11.7335 11.8013 11.5512 11.8824 11.3575C11.9258 11.2674 11.9484 11.1687 11.9484 11.0688C11.9484 10.9688 11.9258 10.8701 11.8824 10.78C11.8824 10.6225 11.1474 9.03 10.8674 8.3825C10.5874 7.735 10.3424 7.8225 10.1499 7.8225H9.44991C9.11645 7.8355 8.80176 7.98026 8.57491 8.225C8.20873 8.57443 7.91869 8.99573 7.72295 9.46249C7.52721 9.92925 7.43 10.4314 7.43741 10.9375C7.52692 12.18 7.98377 13.3678 8.74991 14.35C10.1558 16.4385 12.0792 18.1268 14.3324 19.25C15.1024 19.5825 15.6974 19.775 16.1699 19.9325C16.8334 20.133 17.5347 20.175 18.2174 20.055C18.6708 19.963 19.1005 19.7789 19.4798 19.514C19.8591 19.249 20.1799 18.909 20.4224 18.515C20.6242 18.0284 20.6907 17.4963 20.6149 16.975C20.5274 16.8525 20.3174 16.765 19.9849 16.6075Z" fill="white"/>
<path d="M23.2575 4.69002C22.0472 3.46831 20.6046 2.50134 19.0146 1.84612C17.4247 1.1909 15.7196 0.860708 14 0.875019C11.722 0.88694 9.48699 1.49632 7.51822 2.64231C5.54945 3.7883 3.9158 5.43077 2.78044 7.4057C1.64508 9.38062 1.04775 11.6189 1.0481 13.8969C1.04846 16.1749 1.64649 18.413 2.78247 20.3875L1.03247 27.125L7.92747 25.375C9.83363 26.4123 11.9699 26.9538 14.14 26.95H14C16.5863 26.9669 19.1191 26.213 21.2753 24.7847C23.4315 23.3563 25.1135 21.3181 26.1066 18.9299C27.0998 16.5418 27.3592 13.912 26.8518 11.3759C26.3443 8.83971 25.093 6.51216 23.2575 4.69002ZM14 24.71C12.0584 24.7116 10.153 24.1853 8.48747 23.1875L8.10247 22.96L4.00747 24.0275L5.09247 20.0375L4.84747 19.635C3.44984 17.3842 2.92704 14.6987 3.37826 12.088C3.82947 9.47728 5.22331 7.12302 7.29531 5.47189C9.36731 3.82077 11.9733 2.98765 14.6189 3.13062C17.2644 3.2736 19.7655 4.38271 21.6475 6.24752C22.6564 7.24833 23.4561 8.43993 23.9999 9.75289C24.5437 11.0659 24.8208 12.4739 24.815 13.895C24.8103 16.7619 23.6694 19.5101 21.6422 21.5373C19.615 23.5645 16.8669 24.7054 14 24.71Z" fill="white"/>
</svg>
