<svg width="40" height="40" viewBox="0 0 40 40" fill="none" xmlns="http://www.w3.org/2000/svg">
<path d="M4.07989 4.00119C3.78914 4.01528 3.5146 4.15074 3.31343 4.37934C3.11227 4.60795 3 4.91208 3 5.22841C3 5.54473 3.11227 5.84887 3.31343 6.07747C3.5146 6.30607 3.78914 6.44146 4.07989 6.45555H8.43484C10.2412 11.4862 12.0228 16.5278 13.8169 21.567L12.1675 26.0285C12.0998 26.2162 12.0736 26.4184 12.0909 26.6191C12.1082 26.8197 12.1687 27.0132 12.2673 27.1838C12.3662 27.3492 12.5012 27.4854 12.6602 27.5804C12.8192 27.6755 12.9974 27.7263 13.1789 27.7285H31.3712C31.6706 27.7285 31.9578 27.5993 32.1696 27.3691C32.3813 27.139 32.5003 26.8269 32.5003 26.5014C32.5003 26.1759 32.3813 25.8637 32.1696 25.6336C31.9578 25.4034 31.6706 25.2742 31.3712 25.2742H14.8148L15.7589 22.7431L33.2818 21.1709C33.5147 21.1423 33.7337 21.0361 33.9088 20.8668C34.0838 20.6975 34.2064 20.4733 34.2595 20.2252L36.4426 9.58752C36.4717 9.41173 36.4664 9.23129 36.4271 9.05786C36.3879 8.88442 36.3155 8.72187 36.2148 8.58077C36.114 8.43968 35.9871 8.32322 35.8423 8.23884C35.6975 8.15447 35.5379 8.10412 35.3741 8.09105H11.3692L10.1862 4.7665C10.1052 4.54567 9.96643 4.35548 9.78713 4.21928C9.60782 4.08307 9.39577 4.00685 9.17711 4L4.07989 4.00119ZM12.2449 10.5479H33.9972L32.303 18.8067L15.7084 20.2899L12.2449 10.5479ZM16.8151 28.5426C16.0652 28.515 15.3247 28.7313 14.6887 29.1641C14.0527 29.5968 13.5502 30.2262 13.2455 30.9715C12.9408 31.7168 12.8478 32.544 12.9786 33.3471C13.1093 34.1501 13.4578 34.8924 13.9793 35.4788C14.5008 36.0651 15.1716 36.4689 15.9056 36.6382C16.6396 36.8074 17.4034 36.7345 18.099 36.4288C18.7947 36.1231 19.3904 35.5985 19.8099 34.9223C20.2294 34.2461 20.4536 33.4492 20.4535 32.6337C20.4653 31.5683 20.0897 30.541 19.4084 29.7749C18.7271 29.0089 17.7951 28.566 16.8151 28.5426ZM27.7316 28.5426C26.9817 28.515 26.2413 28.7313 25.6053 29.1641C24.9693 29.5968 24.4667 30.2262 24.162 30.9715C23.8573 31.7168 23.7644 32.544 23.8951 33.3471C24.0259 34.1501 24.3743 34.8924 24.8958 35.4788C25.4173 36.0651 26.0881 36.4689 26.8221 36.6382C27.5561 36.8074 28.3199 36.7345 29.0155 36.4288C29.7112 36.1231 30.307 35.5985 30.7265 34.9223C31.146 34.2461 31.3701 33.4492 31.3701 32.6337C31.3818 31.5683 31.0062 30.541 30.3249 29.7749C29.6436 29.0089 28.7117 28.566 27.7316 28.5426ZM16.8151 30.997C17.1151 30.9863 17.4112 31.0733 17.6654 31.2467C17.9197 31.4201 18.1205 31.6721 18.2421 31.9704C18.3638 32.2686 18.4007 32.5995 18.3481 32.9207C18.2956 33.2419 18.156 33.5388 17.9472 33.7732C17.7384 34.0076 17.47 34.1689 17.1763 34.2365C16.8827 34.304 16.5772 34.2747 16.2989 34.1523C16.0207 34.0298 15.7824 33.8199 15.6147 33.5493C15.447 33.2788 15.3574 32.9599 15.3575 32.6337C15.3527 32.422 15.3868 32.2115 15.4578 32.0143C15.5289 31.8172 15.6354 31.6375 15.7711 31.4856C15.9068 31.3338 16.0691 31.2128 16.2484 31.13C16.4276 31.0471 16.6203 31.004 16.8151 31.0031V30.997ZM27.7316 30.997C28.0316 30.9863 28.3277 31.0733 28.582 31.2467C28.8362 31.4201 29.037 31.6721 29.1586 31.9704C29.2803 32.2686 29.3172 32.5995 29.2646 32.9207C29.2121 33.2419 29.0725 33.5388 28.8637 33.7732C28.6549 34.0076 28.3865 34.1689 28.0929 34.2365C27.7992 34.304 27.4937 34.2747 27.2154 34.1523C26.9372 34.0298 26.699 33.8199 26.5312 33.5493C26.3635 33.2788 26.2739 32.9599 26.274 32.6337C26.2692 32.422 26.3033 32.2115 26.3744 32.0143C26.4454 31.8172 26.5519 31.6375 26.6876 31.4856C26.8234 31.3338 26.9856 31.2128 27.1649 31.13C27.3441 31.0471 27.5368 31.004 27.7316 31.0031V30.997Z" fill="white"/>
</svg>
