<svg width="28" height="28" viewBox="0 0 28 28" fill="none" xmlns="http://www.w3.org/2000/svg">
<path d="M2.85843 12.3375L7.75843 7.4375C8.03065 7.16528 8.35149 6.97083 8.72093 6.85417C9.09038 6.7375 9.46954 6.71806 9.85843 6.79583L11.3751 7.11667C10.3251 8.36111 9.49871 9.48889 8.89593 10.5C8.29315 11.5111 7.70982 12.7361 7.14593 14.175L2.85843 12.3375ZM8.8376 14.9917C9.28482 13.5917 9.89265 12.2694 10.6611 11.025C11.4295 9.78056 12.3578 8.61389 13.4459 7.525C15.157 5.81389 17.1112 4.53522 19.3084 3.689C21.5057 2.84278 23.557 2.58533 25.4626 2.91667C25.7932 4.82222 25.5404 6.87361 24.7043 9.07083C23.8682 11.2681 22.5945 13.2222 20.8834 14.9333C19.814 16.0028 18.6473 16.9314 17.3834 17.7193C16.1195 18.5072 14.7876 19.1244 13.3876 19.5708L8.8376 14.9917ZM16.8876 11.4917C17.3348 11.9389 17.8843 12.1625 18.5361 12.1625C19.1879 12.1625 19.737 11.9389 20.1834 11.4917C20.6307 11.0444 20.8543 10.4953 20.8543 9.84433C20.8543 9.19333 20.6307 8.64383 20.1834 8.19583C19.7362 7.74861 19.1867 7.525 18.5349 7.525C17.8832 7.525 17.334 7.74861 16.8876 8.19583C16.4404 8.64306 16.2168 9.19256 16.2168 9.84433C16.2168 10.4961 16.4404 11.0452 16.8876 11.4917ZM16.0709 25.5208L14.2043 21.2333C15.6432 20.6694 16.8732 20.0861 17.8944 19.4833C18.9157 18.8806 20.0481 18.0542 21.2918 17.0042L21.5834 18.5208C21.6612 18.9097 21.6418 19.2939 21.5251 19.6735C21.4084 20.0531 21.214 20.3786 20.9418 20.65L16.0709 25.5208ZM4.7251 18.725C5.40565 18.0444 6.23204 17.6991 7.20426 17.689C8.17649 17.6789 9.00288 18.0145 9.68343 18.6958C10.364 19.3764 10.7043 20.2028 10.7043 21.175C10.7043 22.1472 10.364 22.9736 9.68343 23.6542C9.19732 24.1403 8.38571 24.5583 7.2486 24.9083C6.11149 25.2583 4.54115 25.5694 2.5376 25.8417C2.80982 23.8389 3.12093 22.2736 3.47093 21.1458C3.82093 20.0181 4.23899 19.2111 4.7251 18.725Z" fill="white"/>
</svg>
