<svg width="28" height="28" viewBox="0 0 28 28" fill="none" xmlns="http://www.w3.org/2000/svg">
<path d="M15.75 1.3125H12.25C10.2781 1.31453 8.38749 2.09877 6.99313 3.49313C5.59877 4.88749 4.81453 6.77807 4.8125 8.75V19.25C4.81453 21.2219 5.59877 23.1125 6.99313 24.5069C8.38749 25.9012 10.2781 26.6855 12.25 26.6875H15.75C17.7219 26.6855 19.6125 25.9012 21.0069 24.5069C22.4012 23.1125 23.1855 21.2219 23.1875 19.25V8.75C23.1855 6.77807 22.4012 4.88749 21.0069 3.49313C19.6125 2.09877 17.7219 1.31453 15.75 1.3125ZM20.5625 19.25C20.5611 20.5259 20.0536 21.7491 19.1514 22.6514C18.2491 23.5536 17.0259 24.0611 15.75 24.0625H12.25C10.9741 24.0611 9.75085 23.5536 8.84865 22.6514C7.94644 21.7491 7.43895 20.5259 7.4375 19.25V8.75C7.43895 7.47409 7.94644 6.25085 8.84865 5.34865C9.75085 4.44644 10.9741 3.93895 12.25 3.9375H15.75C17.0259 3.93895 18.2491 4.44644 19.1514 5.34865C20.0536 6.25085 20.5611 7.47409 20.5625 8.75V19.25ZM15.3125 7V12.25C15.3125 12.5981 15.1742 12.9319 14.9281 13.1781C14.6819 13.4242 14.3481 13.5625 14 13.5625C13.6519 13.5625 13.3181 13.4242 13.0719 13.1781C12.8258 12.9319 12.6875 12.5981 12.6875 12.25V7C12.6875 6.6519 12.8258 6.31806 13.0719 6.07192C13.3181 5.82578 13.6519 5.6875 14 5.6875C14.3481 5.6875 14.6819 5.82578 14.9281 6.07192C15.1742 6.31806 15.3125 6.6519 15.3125 7Z" fill="white"/>
</svg>
