<svg width="28" height="28" viewBox="0 0 28 28" fill="none" xmlns="http://www.w3.org/2000/svg">
<g clip-path="url(#clip0_1_283)">
<path d="M18.5015 4.77097L18.5131 4.77297L18.5248 4.77441L18.7325 4.80008L18.7429 4.80137L18.7534 4.80222L19.3285 4.84888L19.3292 4.84894C20.2805 4.92484 21.1769 5.32502 21.8686 5.98256C22.5588 6.63868 23.0033 7.51135 23.1284 8.45525L23.1516 8.67615L23.1977 9.24558C23.1977 9.24582 23.1977 9.24605 23.1977 9.24629C23.238 9.75365 23.4141 10.2408 23.7077 10.6566L23.7141 10.6656L23.7208 10.6744L23.8492 10.8401L23.8567 10.8498L23.8647 10.8591L24.2396 11.2968C24.2396 11.2969 24.2397 11.297 24.2398 11.2971C24.8569 12.0215 25.2075 12.9352 25.2332 13.8864C25.259 14.8359 24.9595 15.7656 24.3846 16.5215L24.2347 16.709L23.8654 17.1415L23.8653 17.1416C23.5344 17.5293 23.3141 17.9991 23.2278 18.5016L23.2258 18.5132L23.2244 18.5248L23.1987 18.7325L23.1974 18.7434L23.1965 18.7544L23.151 19.3293C23.0751 20.2806 22.675 21.177 22.0174 21.8687C21.3613 22.5588 20.4887 23.0034 19.5448 23.1284L19.3227 23.1516L18.7544 23.1977C18.7543 23.1977 18.7543 23.1978 18.7542 23.1978C18.2467 23.2379 17.7593 23.4141 17.3434 23.7077L17.3335 23.7148L17.3239 23.7223L17.1582 23.8518L17.1503 23.858L17.1426 23.8645L16.7027 24.2378L16.7019 24.2385C15.9777 24.8559 15.0639 25.2068 14.1125 25.2327C13.1633 25.2586 12.2338 24.9595 11.4778 24.3851L11.2916 24.2352L10.8584 23.8654L10.8584 23.8654C10.4707 23.5344 10.0008 23.3142 9.49842 23.2279L9.48545 23.2257L9.47237 23.2241L9.26471 23.1996L9.25565 23.1986L9.24656 23.1978L8.67139 23.1512L8.67073 23.1511C7.7194 23.0752 6.82297 22.675 6.13129 22.0175C5.44112 21.3614 4.99656 20.4887 4.87154 19.5448L4.84835 19.3239L4.80224 18.7545C4.80222 18.7543 4.80221 18.7541 4.80219 18.7539C4.76199 18.2465 4.58584 17.7593 4.29224 17.3435L4.28522 17.3335L4.27772 17.3239L4.14822 17.1583L4.14177 17.15L4.13499 17.142L3.76049 16.7022L3.76037 16.7021C3.14311 15.9777 2.79244 15.0638 2.76667 14.1125C2.74095 13.1632 3.04024 12.2338 3.61486 11.4779L3.76501 11.2914L4.13341 10.8585C4.13347 10.8584 4.13352 10.8584 4.13357 10.8583C4.46446 10.4706 4.68464 10.0008 4.77091 9.49848L4.77291 9.48687L4.77435 9.47518L4.80002 9.26752L4.80131 9.25709L4.80215 9.24662L4.84882 8.67145L4.84888 8.67079C4.92478 7.71946 5.32496 6.82303 5.9825 6.13135C6.63862 5.44118 7.51131 4.99662 8.45522 4.8716L8.67608 4.84841L9.24552 4.8023C9.24571 4.80228 9.2459 4.80227 9.24609 4.80225C9.7535 4.76205 10.2407 4.58589 10.6565 4.2923L10.6665 4.28528L10.6761 4.27778L10.8417 4.14828L10.8502 4.14163L10.8584 4.13462L11.2967 3.76043C11.2968 3.76039 11.2968 3.76036 11.2969 3.76032C12.0212 3.14313 12.935 2.7925 13.8863 2.76673C14.8358 2.741 15.7655 3.04045 16.5214 3.61535L16.7092 3.76555L17.1415 4.13347C17.1416 4.13355 17.1417 4.13363 17.1418 4.13371C17.5295 4.46456 17.9992 4.68471 18.5015 4.77097ZM16.3278 9.31554L16.3277 9.31549L16.3216 9.32163L9.32435 16.3189C9.16677 16.4719 9.04099 16.6546 8.95427 16.8565C8.86692 17.0599 8.82094 17.2786 8.81902 17.4999C8.8171 17.7212 8.85927 17.9406 8.94307 18.1455C9.02687 18.3503 9.15062 18.5364 9.30711 18.6929L9.66067 18.3393L9.30711 18.6929C9.4636 18.8494 9.64968 18.9731 9.85451 19.0569C10.0593 19.1407 10.2788 19.1829 10.5001 19.181C10.7214 19.179 10.9401 19.1331 11.1434 19.0457C11.3453 18.959 11.528 18.8332 11.6811 18.6756L18.6783 11.6784L18.6784 11.6785L18.6844 11.6722C18.988 11.3579 19.156 10.9369 19.1522 10.4999C19.1484 10.0629 18.9731 9.64486 18.6641 9.33584C18.3551 9.02683 17.9371 8.85155 17.5001 8.84775C17.0631 8.84396 16.6421 9.01195 16.3278 9.31554ZM16.9166 14.6667C16.3199 14.6667 15.7476 14.9037 15.3256 15.3257C14.9037 15.7477 14.6666 16.3199 14.6666 16.9167C14.6666 17.5134 14.9037 18.0857 15.3256 18.5077C15.7476 18.9296 16.3199 19.1667 16.9166 19.1667C17.5134 19.1667 18.0857 18.9296 18.5076 18.5077C18.9296 18.0857 19.1666 17.5134 19.1666 16.9167C19.1666 16.3199 18.9296 15.7477 18.5076 15.3257C18.0857 14.9037 17.5134 14.6667 16.9166 14.6667ZM11.0833 8.83335C10.4866 8.83335 9.91426 9.07041 9.4923 9.49236C9.07034 9.91432 8.83329 10.4866 8.83329 11.0834C8.83329 11.6801 9.07034 12.2524 9.4923 12.6743C9.91426 13.0963 10.4866 13.3334 11.0833 13.3334C11.68 13.3334 12.2523 13.0963 12.6743 12.6743C13.0962 12.2524 13.3333 11.6801 13.3333 11.0834C13.3333 10.4866 13.0962 9.91432 12.6743 9.49236C12.2523 9.07041 11.68 8.83335 11.0833 8.83335Z" stroke="white" stroke-linecap="round"/>
</g>
<defs>
<clipPath id="clip0_1_283">
<rect width="28" height="28" fill="white"/>
</clipPath>
</defs>
</svg>
