<svg width="15" height="16" viewBox="0 0 15 16" fill="none" xmlns="http://www.w3.org/2000/svg">
<rect width="14.0351" height="15.5556" rx="7.01754" fill="#787878"/>
<path d="M10.1713 7.23047V8.74805C10.1713 9.5638 10.0984 10.252 9.95254 10.8125C9.80671 11.373 9.59707 11.8242 9.32363 12.166C9.0502 12.5078 8.71979 12.7562 8.33242 12.9111C7.94961 13.0615 7.51667 13.1367 7.03359 13.1367C6.65078 13.1367 6.29759 13.0889 5.97402 12.9932C5.65046 12.8975 5.35879 12.7448 5.09902 12.5352C4.84382 12.321 4.62507 12.043 4.44277 11.7012C4.26048 11.3594 4.12148 10.9447 4.02578 10.457C3.93008 9.9694 3.88223 9.39974 3.88223 8.74805V7.23047C3.88223 6.41471 3.95514 5.73112 4.10098 5.17969C4.25137 4.62826 4.46328 4.1862 4.73672 3.85352C5.01016 3.51628 5.33828 3.27474 5.72109 3.12891C6.10846 2.98307 6.54141 2.91016 7.01992 2.91016C7.40729 2.91016 7.76276 2.95801 8.08633 3.05371C8.41445 3.14486 8.70612 3.29297 8.96133 3.49805C9.21654 3.69857 9.43301 3.96745 9.61074 4.30469C9.79303 4.63737 9.93203 5.04525 10.0277 5.52832C10.1234 6.01139 10.1713 6.57878 10.1713 7.23047ZM8.8998 8.95312V7.01855C8.8998 6.57194 8.87246 6.18001 8.81777 5.84277C8.76764 5.50098 8.69245 5.20931 8.59219 4.96777C8.49193 4.72624 8.36432 4.53027 8.20937 4.37988C8.05898 4.22949 7.88353 4.12012 7.68301 4.05176C7.48704 3.97884 7.26602 3.94238 7.01992 3.94238C6.71914 3.94238 6.45254 3.99935 6.22012 4.11328C5.9877 4.22266 5.79173 4.39811 5.63223 4.63965C5.47728 4.88118 5.35879 5.19792 5.27676 5.58984C5.19473 5.98177 5.15371 6.45801 5.15371 7.01855V8.95312C5.15371 9.39974 5.17878 9.79395 5.22891 10.1357C5.28359 10.4775 5.36335 10.7738 5.46816 11.0244C5.57298 11.2705 5.70059 11.4733 5.85098 11.6328C6.00137 11.7923 6.17454 11.9108 6.37051 11.9883C6.57103 12.0612 6.79206 12.0977 7.03359 12.0977C7.34349 12.0977 7.61465 12.0384 7.84707 11.9199C8.07949 11.8014 8.27318 11.6169 8.42812 11.3662C8.58763 11.111 8.70612 10.7852 8.78359 10.3887C8.86107 9.98763 8.8998 9.50911 8.8998 8.95312Z" fill="white"/>
</svg>
