<svg width="32" height="32" viewBox="0 0 32 32" fill="none" xmlns="http://www.w3.org/2000/svg">
<path d="M28.2296 12.0461L17.0296 23.2795C16.8962 23.4128 16.7518 23.507 16.5962 23.5621C16.4407 23.6181 16.274 23.6461 16.0962 23.6461C15.9184 23.6461 15.7518 23.6181 15.5962 23.5621C15.4407 23.507 15.2962 23.4128 15.1629 23.2795L3.92956 12.0461C3.61845 11.735 3.46289 11.3461 3.46289 10.8795C3.46289 10.4128 3.62956 10.0128 3.96289 9.67945C4.29622 9.34612 4.68511 9.17945 5.12956 9.17945C5.574 9.17945 5.96289 9.34612 6.29622 9.67945L16.0962 19.4795L25.8962 9.67945C26.2073 9.36834 26.5904 9.21279 27.0456 9.21279C27.5016 9.21279 27.8962 9.37945 28.2296 9.71279C28.5629 10.0461 28.7296 10.435 28.7296 10.8795C28.7296 11.3239 28.5629 11.7128 28.2296 12.0461Z" fill="white"/>
</svg>
