<svg width="28" height="28" viewBox="0 0 28 28" fill="none" xmlns="http://www.w3.org/2000/svg">
<path d="M24.4999 10.5H3.49992C2.85559 10.5 2.33325 11.0223 2.33325 11.6667V23.3333C2.33325 23.9777 2.85559 24.5 3.49992 24.5H24.4999C25.1443 24.5 25.6666 23.9777 25.6666 23.3333V11.6667C25.6666 11.0223 25.1443 10.5 24.4999 10.5Z" stroke="white" stroke-linecap="round" stroke-linejoin="round"/>
<path d="M8.16667 15.1667C8.811 15.1667 9.33333 14.6443 9.33333 14C9.33333 13.3557 8.811 12.8333 8.16667 12.8333C7.52233 12.8333 7 13.3557 7 14C7 14.6443 7.52233 15.1667 8.16667 15.1667Z" fill="white"/>
<path d="M9.33317 18.6667C9.9775 18.6667 10.4998 18.1443 10.4998 17.5C10.4998 16.8557 9.9775 16.3333 9.33317 16.3333C8.68884 16.3333 8.1665 16.8557 8.1665 17.5C8.1665 18.1443 8.68884 18.6667 9.33317 18.6667Z" fill="white"/>
<path d="M5.83317 18.6667C6.4775 18.6667 6.99984 18.1443 6.99984 17.5C6.99984 16.8557 6.4775 16.3333 5.83317 16.3333C5.18884 16.3333 4.6665 16.8557 4.6665 17.5C4.6665 18.1443 5.18884 18.6667 5.83317 18.6667Z" fill="white"/>
<path d="M11.6667 15.1667C12.311 15.1667 12.8333 14.6443 12.8333 14C12.8333 13.3557 12.311 12.8333 11.6667 12.8333C11.0223 12.8333 10.5 13.3557 10.5 14C10.5 14.6443 11.0223 15.1667 11.6667 15.1667Z" fill="white"/>
<path d="M12.8332 18.6667C13.4775 18.6667 13.9998 18.1443 13.9998 17.5C13.9998 16.8557 13.4775 16.3333 12.8332 16.3333C12.1888 16.3333 11.6665 16.8557 11.6665 17.5C11.6665 18.1443 12.1888 18.6667 12.8332 18.6667Z" fill="white"/>
<path d="M15.1667 15.1667C15.811 15.1667 16.3333 14.6443 16.3333 14C16.3333 13.3557 15.811 12.8333 15.1667 12.8333C14.5223 12.8333 14 13.3557 14 14C14 14.6443 14.5223 15.1667 15.1667 15.1667Z" fill="white"/>
<path d="M16.3332 18.6667C16.9775 18.6667 17.4998 18.1443 17.4998 17.5C17.4998 16.8557 16.9775 16.3333 16.3332 16.3333C15.6888 16.3333 15.1665 16.8557 15.1665 17.5C15.1665 18.1443 15.6888 18.6667 16.3332 18.6667Z" fill="white"/>
<path d="M18.6667 15.1667C19.311 15.1667 19.8333 14.6443 19.8333 14C19.8333 13.3557 19.311 12.8333 18.6667 12.8333C18.0223 12.8333 17.5 13.3557 17.5 14C17.5 14.6443 18.0223 15.1667 18.6667 15.1667Z" fill="white"/>
<path d="M19.8332 18.6667C20.4775 18.6667 20.9998 18.1443 20.9998 17.5C20.9998 16.8557 20.4775 16.3333 19.8332 16.3333C19.1888 16.3333 18.6665 16.8557 18.6665 17.5C18.6665 18.1443 19.1888 18.6667 19.8332 18.6667Z" fill="white"/>
<path d="M22.1667 15.1667C22.811 15.1667 23.3333 14.6443 23.3333 14C23.3333 13.3557 22.811 12.8333 22.1667 12.8333C21.5223 12.8333 21 13.3557 21 14C21 14.6443 21.5223 15.1667 22.1667 15.1667Z" fill="white"/>
<path d="M9.9165 21H18.0832M19.2498 10.5V7.65625C19.2498 7.50154 19.3113 7.35317 19.4207 7.24377C19.5301 7.13437 19.6785 7.07292 19.8332 7.07292H22.7498C22.9045 7.07292 23.0529 7.01146 23.1623 6.90206C23.2717 6.79267 23.3332 6.64429 23.3332 6.48958V3.5" stroke="white" stroke-linecap="round" stroke-linejoin="round"/>
</svg>
