<svg width="46" height="46" viewBox="0 0 46 46" fill="none" xmlns="http://www.w3.org/2000/svg">
<path d="M22.9999 26.8333C26.1816 26.8333 28.7499 24.265 28.7499 21.0833V9.58334C28.7499 6.40168 26.1816 3.83334 22.9999 3.83334C19.8182 3.83334 17.2499 6.40168 17.2499 9.58334V21.0833C17.2499 24.265 19.8182 26.8333 22.9999 26.8333ZM21.0832 9.58334C21.0832 8.52918 21.9457 7.66668 22.9999 7.66668C24.0541 7.66668 24.9166 8.52918 24.9166 9.58334V21.0833C24.9166 22.1375 24.0541 23 22.9999 23C21.9457 23 21.0832 22.1375 21.0832 21.0833V9.58334ZM34.3274 21.0833C33.3882 21.0833 32.6024 21.7733 32.4491 22.7125C31.6632 27.2167 27.7341 30.6667 22.9999 30.6667C18.2657 30.6667 14.3366 27.2167 13.5507 22.7125C13.4831 22.2617 13.2568 21.8498 12.9124 21.5511C12.568 21.2524 12.1283 21.0865 11.6724 21.0833C10.5032 21.0833 9.58323 22.1183 9.75573 23.2683C10.6949 29.0183 15.2949 33.5225 21.0832 34.3467V38.3333C21.0832 39.3875 21.9457 40.25 22.9999 40.25C24.0541 40.25 24.9166 39.3875 24.9166 38.3333V34.3467C27.737 33.9437 30.3556 32.6525 32.3925 30.6605C34.4294 28.6684 35.7785 26.0791 36.2441 23.2683C36.4357 22.1183 35.4966 21.0833 34.3274 21.0833Z" fill="white"/>
</svg>
