<svg width="49" height="51" viewBox="0 0 49 51" fill="none" xmlns="http://www.w3.org/2000/svg">
<path d="M27.5 16C25.76 16 24.09 16.81 23 18.08C21.91 16.81 20.24 16 18.5 16C15.42 16 13 18.41 13 21.5C13 25.27 16.4 28.36 21.55 33.03L23 34.35L24.45 33.03C29.6 28.36 33 25.27 33 21.5C33 18.41 30.58 16 27.5 16Z" fill="#00E9D0"/>
<path d="M27.5 16C25.76 16 24.09 16.81 23 18.08C21.91 16.81 20.24 16 18.5 16C15.42 16 13 18.41 13 21.5C13 25.27 16.4 28.36 21.55 33.03L23 34.35L24.45 33.03C29.6 28.36 33 25.27 33 21.5C33 18.41 30.58 16 27.5 16Z" stroke="#333333"/>
</svg>
