<svg width="51" height="47" viewBox="0 0 51 47" fill="none" xmlns="http://www.w3.org/2000/svg">
<path d="M23.1 29.55L23 29.65L22.89 29.55C18.14 25.24 15 22.39 15 19.5C15 17.5 16.5 16 18.5 16C20.04 16 21.54 17 22.07 18.36H23.93C24.46 17 25.96 16 27.5 16C29.5 16 31 17.5 31 19.5C31 22.39 27.86 25.24 23.1 29.55ZM27.5 14C25.76 14 24.09 14.81 23 16.08C21.91 14.81 20.24 14 18.5 14C15.42 14 13 16.41 13 19.5C13 23.27 16.4 26.36 21.55 31.03L23 32.35L24.45 31.03C29.6 26.36 33 23.27 33 19.5C33 16.41 30.58 14 27.5 14Z" fill="#515151"/>
</svg>
