<svg width="88" height="13" viewBox="0 0 88 13" fill="none" xmlns="http://www.w3.org/2000/svg">
<path d="M77.7832 6.39893V6.30127C77.7832 5.73812 77.8369 5.19124 77.9443 4.66064C78.0518 4.13005 78.1982 3.63851 78.3838 3.18604C78.5726 2.73031 78.7874 2.3348 79.0283 1.99951C79.2725 1.66423 79.5312 1.41032 79.8047 1.23779L79.8975 1.44775C79.6566 1.60726 79.4255 1.84814 79.2041 2.17041C78.9827 2.49268 78.7842 2.87354 78.6084 3.31299C78.4359 3.74919 78.2992 4.22119 78.1982 4.729C78.0973 5.23682 78.0469 5.75439 78.0469 6.28174V6.40869C78.0469 6.93604 78.0973 7.45361 78.1982 7.96143C78.2992 8.46924 78.4359 8.94124 78.6084 9.37744C78.7842 9.81689 78.9827 10.1978 79.2041 10.52C79.4255 10.8455 79.6566 11.0881 79.8975 11.2476L79.8047 11.4575C79.5312 11.285 79.2725 11.036 79.0283 10.7104C78.7874 10.3882 78.5726 10.0041 78.3838 9.55811C78.1982 9.1154 78.0518 8.62712 77.9443 8.09326C77.8369 7.55615 77.7832 6.99137 77.7832 6.39893ZM85.3711 6.96045V7.22412H80.4297V7.07764L83.8232 2.05322H84.0674L83.4668 3.04443L80.8398 6.96045H85.3711ZM84.1406 2.05322V9.1626H83.877V2.05322H84.1406ZM87.7588 6.30127V6.39893C87.7588 6.99137 87.7051 7.55615 87.5977 8.09326C87.4902 8.62712 87.3421 9.1154 87.1533 9.55811C86.9678 10.0041 86.7529 10.3882 86.5088 10.7104C86.2679 11.036 86.0107 11.285 85.7373 11.4575L85.6445 11.2476C85.8854 11.0881 86.1165 10.8455 86.3379 10.52C86.5592 10.1978 86.7562 9.81689 86.9287 9.37744C87.1045 8.94124 87.2428 8.46924 87.3438 7.96143C87.4447 7.45361 87.4951 6.93604 87.4951 6.40869V6.28174C87.4951 5.75439 87.4447 5.23682 87.3438 4.729C87.2428 4.22119 87.1045 3.74919 86.9287 3.31299C86.7562 2.87354 86.5592 2.49268 86.3379 2.17041C86.1165 1.84814 85.8854 1.60726 85.6445 1.44775L85.7373 1.23779C86.0107 1.41032 86.2679 1.66423 86.5088 1.99951C86.7529 2.3348 86.9678 2.73031 87.1533 3.18604C87.3421 3.63851 87.4902 4.13005 87.5977 4.66064C87.7051 5.19124 87.7588 5.73812 87.7588 6.30127Z" fill="black"/>
<path d="M5.32051 0.967285L6.57144 4.70883L10.3806 4.78953L7.34456 7.18264L8.44783 10.9741L5.32051 8.71154L2.19319 10.9741L3.29647 7.18264L0.260405 4.78953L4.06959 4.70883L5.32051 0.967285Z" fill="#00A9E0"/>
<path d="M21.2819 0.967285L22.5329 4.70883L26.342 4.78953L23.306 7.18264L24.4093 10.9741L21.2819 8.71154L18.1546 10.9741L19.2579 7.18264L16.2218 4.78953L20.031 4.70883L21.2819 0.967285Z" fill="#00A9E0"/>
<path d="M37.2434 0.967285L38.4943 4.70883L42.3035 4.78953L39.2674 7.18264L40.3707 10.9741L37.2434 8.71154L34.116 10.9741L35.2193 7.18264L32.1833 4.78953L35.9924 4.70883L37.2434 0.967285Z" fill="#00A9E0"/>
<path d="M53.2053 0.967285L54.4562 4.70883L58.2654 4.78953L55.2293 7.18264L56.3326 10.9741L53.2053 8.71154L50.078 10.9741L51.1812 7.18264L48.1452 4.78953L51.9544 4.70883L53.2053 0.967285Z" fill="#555555"/>
<path d="M53.2053 0.967285L54.4562 4.70883L58.2654 4.78953L55.2293 7.18264L56.3326 10.9741L53.2053 8.71154L50.078 10.9741L51.1812 7.18264L48.1452 4.78953L51.9544 4.70883L53.2053 0.967285Z" fill="url(#paint0_linear_333_3041)"/>
<path d="M69.1667 0.967285L70.4176 4.70883L74.2268 4.78953L71.1908 7.18264L72.294 10.9741L69.1667 8.71154L66.0394 10.9741L67.1427 7.18264L64.1066 4.78953L67.9158 4.70883L69.1667 0.967285Z" fill="white"/>
<defs>
<linearGradient id="paint0_linear_333_3041" x1="47.8848" y1="6.49889" x2="58.5258" y2="6.49889" gradientUnits="userSpaceOnUse">
<stop offset="0.500195" stop-color="#00A9E0"/>
<stop offset="0.500781" stop-color="white"/>
</linearGradient>
</defs>
</svg>
