<svg width="415" height="100" viewBox="0 0 415 100" fill="none" xmlns="http://www.w3.org/2000/svg">
<rect x="0.720703" y="-0.00976562" width="414.117" height="100" rx="4" fill="#333333"/>
<path d="M149.827 38.1246L144.468 41.8222L146.084 35.1924L141.132 30.8387L147.5 30.4064L149.827 23.9902L152.153 30.4064L158.521 30.8387L153.57 35.1874L155.163 41.8172L149.827 38.1246Z" fill="#999999"/>
<path d="M168.546 53.0989L162.997 60.1611C161.449 62.2808 159.497 64.0023 157.278 65.2044C155.059 66.4065 152.627 67.06 150.153 67.119H147.817V76.0002H150.153C153.685 75.9485 157.164 75.0441 160.343 73.3513C163.522 71.6584 166.322 69.2185 168.546 66.2045L174.095 59.1423C175.643 57.0226 177.596 55.3011 179.815 54.099C182.034 52.8969 184.466 52.2434 186.94 52.1844H189.275V43.3032H186.94C183.409 43.3661 179.934 44.2753 176.756 45.9674C173.579 47.6594 170.777 50.0933 168.546 53.0989Z" fill="#999999"/>
<path d="M113.809 43.3032C111.903 43.3528 110.024 43.8153 108.281 44.6642C106.538 45.5131 104.964 46.7316 103.651 48.2499C102.338 49.7682 101.31 51.5563 100.628 53.5116C99.9455 55.467 99.6216 57.551 99.6745 59.6442V75.9852H113.809C115.685 75.9775 117.54 75.551 119.261 74.7317C120.982 73.9124 122.533 72.7173 123.821 71.2191L134.814 58.5111V75.9902H142.467V43.3032H113.809ZM118.335 64.8676C117.739 65.5513 117.023 66.095 116.231 66.4657C115.438 66.8365 114.585 67.0266 113.723 67.0245H107.233V59.5299C107.204 57.5998 107.866 55.7344 109.076 54.3341C110.286 52.9338 111.948 52.1103 113.705 52.0403H129.41C125.391 56.8064 118.321 64.8676 118.321 64.8676H118.335Z" fill="#999999"/>
<path d="M202.45 45.51V37.3594H194.625V60.7477C194.702 64.8706 196.267 68.7912 198.975 71.6483C201.683 74.5053 205.313 76.0653 209.067 75.9854H230.733V67.7304H209.067C208.215 67.7495 207.368 67.584 206.573 67.2434C205.779 66.9028 205.054 66.3938 204.439 65.7453C203.824 65.0969 203.332 64.3218 202.99 63.4643C202.648 62.6068 202.463 61.6837 202.446 60.7477V53.76H230.729V45.51H202.45Z" fill="#999999"/>
<path d="M250.384 43.3032C246.515 43.3894 242.834 45.1588 240.152 48.2228C237.469 51.2868 236.004 55.3947 236.078 59.6442V75.9852H243.826V59.6442C243.808 57.7012 244.485 55.8279 245.711 54.4272C246.937 53.0266 248.616 52.2105 250.384 52.1546H270.851V43.3032H250.384Z" fill="#999999"/>
<path d="M287.402 43.3032C283.59 43.4548 279.988 45.2601 277.386 48.3233C274.784 51.3865 273.394 55.4576 273.521 59.6442C273.395 63.8305 274.786 67.9009 277.387 70.9638C279.989 74.0267 283.59 75.8323 287.402 75.9852H301.093C304.906 75.8336 308.508 74.0284 311.11 70.9652C313.712 67.902 315.102 63.8308 314.974 59.6442V43.3032H287.402ZM307.457 59.6442C307.517 61.5638 306.88 63.431 305.687 64.8354C304.494 66.2398 302.841 67.0665 301.093 67.1339H287.402C286.537 67.1011 285.685 66.8814 284.897 66.4873C284.108 66.0932 283.398 65.5323 282.807 64.8368C282.216 64.1412 281.756 63.3247 281.453 62.4337C281.149 61.5428 281.009 60.5949 281.039 59.6442C280.996 57.7296 281.638 55.8728 282.828 54.4724C284.017 53.0721 285.66 52.2399 287.402 52.1546H307.466L307.457 59.6442Z" fill="#999999"/>
</svg>
