<svg width="415" height="100" viewBox="0 0 415 100" fill="none" xmlns="http://www.w3.org/2000/svg">
<rect x="0.162109" y="-0.00976562" width="414.117" height="100" rx="4" fill="#333333"/>
<path d="M250.138 35.2359C247.602 30.4553 244.183 26.3028 240.097 23.0423C235.663 19.461 230.706 16.7224 225.436 14.9421C213.836 11.0063 201.414 11.0063 189.814 14.9421C184.546 16.73 179.591 19.4679 175.152 23.0423C171.067 26.3028 167.648 30.4553 165.112 35.2359C162.701 39.8642 161.426 45.0937 161.411 50.4176C161.426 55.7476 162.719 60.9804 165.161 65.5957C167.697 70.3764 171.116 74.5289 175.202 77.7893C179.636 81.3707 184.593 84.1092 189.863 85.8896C201.463 89.8254 213.885 89.8254 225.486 85.8896C230.756 84.1092 235.712 81.3707 240.147 77.7893C244.232 74.5289 247.652 70.3764 250.187 65.5957C252.63 60.9804 253.923 55.7476 253.938 50.4176C253.889 45.0845 252.58 39.8554 250.138 35.2359ZM235.559 50.7164V55.0618L231.528 56.1418V50.8748C231.528 49.694 232.518 49.4348 233.379 49.4348C234.368 49.4348 235.559 49.6508 235.559 50.6876V50.7164ZM246.074 50.7884L240.962 52.3617C240.382 50.8175 239.385 49.5028 238.103 48.5928C236.821 47.6827 235.316 47.2204 233.788 47.2675C232.657 47.1867 231.523 47.355 230.454 47.7622C229.384 48.1694 228.4 48.8073 227.561 49.638C226.722 50.4686 226.044 51.475 225.569 52.5973C225.093 53.7195 224.829 54.9348 224.793 56.1706C224.801 57.4151 225.05 58.6436 225.524 59.7754C225.999 60.9073 226.687 61.9167 227.544 62.7376C228.401 63.5584 229.407 64.172 230.497 64.538C231.587 64.9041 232.735 65.0142 233.867 64.8613C235.536 65.0354 237.207 64.5575 238.584 63.5126C239.96 62.4677 240.953 60.9236 241.384 59.1551L241.483 58.7951L239.385 59.7239L239.352 59.7779C238.86 60.8054 238.103 61.6528 237.174 62.2153C236.246 62.7777 235.186 63.0306 234.127 62.9424C232.293 62.9424 231.555 62.244 231.555 60.5484V58.1867L240.566 55.6126L243.515 54.7738L243.185 57.7943L248.657 55.3822C247.714 59.5086 246.031 63.3902 243.706 66.8029C241.381 70.2157 238.459 73.0919 235.11 75.2657C226.883 80.8344 217.368 83.7187 207.688 83.5783C197.398 83.7683 187.305 80.4841 178.79 74.1748C175.295 71.7361 172.352 68.4647 170.181 64.6063C168.01 60.7479 166.668 56.4028 166.256 51.8973L170.386 51.1773L169.895 54.2517L176.89 52.7865L176.857 62.622L174.694 62.568V64.6237H184.671C186.139 64.6649 187.608 64.5697 189.062 64.3393C191.651 63.869 194.029 62.4897 195.835 60.4106C197.641 58.3315 198.776 55.6661 199.069 52.8189C199.032 51.8548 198.813 50.9094 198.425 50.0423C198.037 49.1752 197.489 48.4051 196.815 47.7805C196.141 47.1559 195.356 46.6903 194.509 46.4131C193.663 46.1358 192.772 46.0529 191.895 46.1695H191.469C193.564 45.0545 195.254 43.2032 196.268 40.9133L199.758 40.0385V62.5752H197.565V64.5553H208.034V62.5752H205.643V36.1144L205.168 36.2584L196.697 38.458C196.705 38.3214 196.705 38.1843 196.697 38.0476C196.516 35.1675 194.504 33.5223 191.159 33.5223C190.238 33.5263 189.321 33.6472 188.425 33.8823L174.714 37.6336L174.42 37.7236V40.1033L176.877 39.4589V49.4348L172.797 50.3996L173.289 47.5555L166.243 49.3988C166.243 49.0964 166.243 48.8984 166.243 48.8984C166.672 44.3841 168.027 40.0333 170.208 36.1691C172.389 32.3049 175.339 29.0266 178.84 26.5777C187.331 20.3031 197.386 17.0349 207.638 17.2174C230.489 17.2174 249.082 32.111 249.082 50.4032C249.082 51.1916 249.049 51.9945 248.983 52.7649L245.758 53.7477L246.074 50.7884ZM183.969 37.2412C184.496 37.1145 185.035 37.0481 185.575 37.0432C188.032 37.0432 189.688 38.4833 189.688 40.6181C189.451 42.2251 188.783 43.7194 187.769 44.9125C186.755 46.1055 185.439 46.9438 183.989 47.3215L183.969 37.2412ZM183.969 49.6508C184.357 49.4804 184.755 49.3361 185.16 49.2188C185.798 49.0477 186.452 48.9583 187.109 48.9524C187.717 48.8739 188.333 48.9362 188.917 49.135C189.501 49.3339 190.04 49.6649 190.499 50.1065C190.958 50.5481 191.327 51.0904 191.581 51.6979C191.835 52.3055 191.969 52.9647 191.974 53.6325C191.752 55.6543 190.957 57.5502 189.702 59.0562C188.446 60.5622 186.791 61.6035 184.968 62.0352C184.638 62.1252 184.309 62.1972 183.979 62.2512L183.969 49.6508Z" fill="#999999"/>
<path d="M224.278 47.0556L216.907 49.0572V51.6133L218.199 51.2533V58.5399C218.199 59.62 216.725 62.3668 215.086 62.3668C214.849 62.3857 214.614 62.3088 214.426 62.1508C214.096 61.7908 214.116 60.7756 214.116 59.7028V47.7252V47.0195L206.53 49.0572V51.6133L208.07 51.2028V58.5147C207.909 60.126 208.124 61.7556 208.694 63.2525C209.383 64.5233 210.725 65.0957 213.034 65.0957C214.004 65.1554 214.973 64.9775 215.872 64.575C216.77 64.1726 217.574 63.5559 218.226 62.77V64.8977L226.515 64.4692V62.1401L224.305 62.266V47.0556H224.278Z" fill="#999999"/>
</svg>
