<svg width="73" height="68" viewBox="0 0 73 68" fill="none" xmlns="http://www.w3.org/2000/svg">
<path d="M0 16C0 7.16344 7.16344 0 16 0H73V68H16C7.16344 68 0 60.8366 0 52V16Z" fill="#101360"/>
<path d="M61.878 44.1072C59.768 46.4963 56.983 48.2005 53.8847 48.9983C50.7864 49.7961 47.518 49.6507 44.504 48.581L28.9643 43.0407C28.6053 42.9133 28.2902 42.6869 28.0562 42.3881C27.8222 42.0893 27.6789 41.7304 27.6431 41.3536C27.6074 40.9767 27.6806 40.5976 27.8543 40.2607C28.028 39.9237 28.2949 39.6429 28.6237 39.4512L30.0649 38.6449C31.0869 38.0206 32.3448 37.8905 33.4716 38.2807L40.6518 40.8298L41.6476 39.7113L23.9591 24.2088C22.9109 23.2984 22.8061 21.7378 23.7233 20.6713C24.6405 19.6569 26.239 19.5528 27.261 20.4372L40.4422 32.0121L41.7786 30.5034L25.5839 16.3275C24.5357 15.4171 24.4308 13.8304 25.348 12.816C26.2652 11.7756 27.8899 11.6715 28.9119 12.6339L45.1067 26.7839L46.4431 25.2752L32.502 13.0761C31.4538 12.1657 31.349 10.5791 32.2662 9.56464C33.1834 8.55021 34.7819 8.42016 35.7515 9.33054L49.745 21.5297L51.0815 20.047L41.6738 11.8016C40.6256 10.8912 40.5208 9.30453 41.438 8.2641C42.3551 7.22366 43.9537 7.14563 44.9233 8.05601L60.4367 21.5817C62.0232 22.9657 63.3191 24.6466 64.2504 26.5283C65.1816 28.41 65.7299 30.4555 65.8637 32.5477C65.9976 34.64 65.7145 36.7379 65.0305 38.7214C64.3466 40.7049 63.2753 42.5351 61.878 44.1072ZM29.7767 34.5091L21.3386 27.122C20.6311 26.4978 20.0284 25.7174 19.6877 24.8591L17.6437 23.8707C17.3484 23.7236 17.0265 23.6366 16.6969 23.6146C16.3673 23.5927 16.0366 23.6363 15.7242 23.7429C15.4117 23.8495 15.1239 24.0169 14.8775 24.2354C14.6312 24.4539 14.4312 24.719 14.2895 25.0151C14.0025 25.6092 13.9625 26.2914 14.1783 26.9145C14.3941 27.5375 14.8482 28.0512 15.4425 28.3445L28.9119 34.8733C29.2002 34.7432 29.4884 34.5872 29.7767 34.5091ZM26.5797 36.0438H26.7107L11.8524 28.8127C11.2506 28.5304 10.561 28.4949 9.93302 28.7141C9.30508 28.9332 8.78951 29.3892 8.49812 29.9832C8.35143 30.2766 8.26488 30.5959 8.24351 30.9228C8.22214 31.2496 8.26637 31.5774 8.37364 31.8871C8.4809 32.1968 8.64906 32.4823 8.86836 32.727C9.08766 32.9717 9.35374 33.1708 9.65115 33.3126L23.8281 40.1795C24.1164 38.4888 25.086 37.0062 26.5797 36.0438ZM43.1675 52.2486L27.6279 46.7082C25.6625 46.0059 24.326 44.3673 23.8805 42.4164L12.3765 36.8501C11.7783 36.5631 11.0902 36.5224 10.4619 36.7368C9.83366 36.9511 9.31619 37.4032 9.02222 37.9946C8.87589 38.288 8.78963 38.6073 8.76844 38.9341C8.74725 39.2608 8.79156 39.5885 8.89879 39.8981C9.00602 40.2077 9.17404 40.4932 9.39315 40.7379C9.61225 40.9827 9.87808 41.1819 10.1752 41.324L31.4014 51.6503L30.7463 52.9509L23.1206 52.4046C21.9414 52.3006 20.7621 52.7688 19.9236 53.6011L18.7181 54.7976C17.5913 56.0202 18.3512 58.023 20.0284 58.1531L36.5114 59.4536C41.8573 59.7917 46.9673 57.4508 50.1643 53.341C47.8582 53.3931 45.4736 53.0549 43.1675 52.2486Z" fill="white"/>
</svg>
