<svg width="416" height="100" viewBox="0 0 416 100" fill="none" xmlns="http://www.w3.org/2000/svg">
<rect x="0.941406" y="-0.00976562" width="414.117" height="100" rx="4" fill="#333333"/>
<g clip-path="url(#clip0_1_3492)">
<path d="M188.716 35.6085C188.01 36.3447 187.457 37.2392 187.092 38.2314C186.728 39.2236 186.562 40.2904 186.605 41.3594V51.0205C186.557 52.0947 186.714 53.168 187.066 54.1714C187.418 55.1748 187.957 56.0861 188.648 56.8466C189.339 57.6071 190.167 58.2 191.079 58.5873C191.991 58.9745 192.966 59.1475 193.943 59.0951H198.166V53.8356H193.943C193.597 53.8789 193.247 53.8359 192.919 53.7097C192.591 53.5836 192.292 53.3775 192.046 53.107C191.801 52.8364 191.613 52.5083 191.499 52.147C191.384 51.7857 191.345 51.4007 191.384 51.0205V41.3379C191.357 40.9778 191.402 40.6154 191.518 40.277C191.633 39.9386 191.815 39.6324 192.05 39.3807C192.878 38.675 193.894 38.2887 194.942 38.2813H204.168V59.0735H208.936V33.0219H195.165C192.802 32.9999 190.512 33.9186 188.716 35.6085Z" fill="#999999"/>
<path d="M177.488 29.1074V66.0962C177.448 67.2899 177.102 68.4467 176.489 69.4329C176.156 69.7935 175.752 70.0653 175.309 70.2274C174.865 70.3896 174.394 70.4378 173.931 70.3684V76.0978C175.077 76.1725 176.223 75.9589 177.282 75.4734C178.342 74.9879 179.287 74.2431 180.046 73.2956C181.565 71.227 182.354 68.6245 182.268 65.9669V29.1074H177.488Z" fill="#999999"/>
<path d="M237.289 32.9014H232.509V51.87C232.523 53.1227 232.173 54.3475 231.51 55.3662C231.302 55.6576 231.029 55.8849 230.717 56.0261C230.406 56.1673 230.066 56.2177 229.732 56.1724H220.952C219.839 56.1724 218.394 55.6335 218.394 53.0771V32.9014H213.614V53.0814C213.528 54.2039 213.653 55.3338 213.981 56.4007C214.31 57.4676 214.835 58.4484 215.524 59.2819C216.212 60.1154 217.05 60.7836 217.984 61.2447C218.918 61.7059 219.928 61.9501 220.952 61.9621H229.732C230.675 61.9136 231.608 61.7325 232.509 61.4232V66.2689C232.47 67.4707 232.123 68.6359 231.51 69.6315C231.178 69.9939 230.775 70.2672 230.331 70.4302C229.887 70.5932 229.415 70.6414 228.952 70.5713V76.3567C230.1 76.4307 231.247 76.2146 232.307 75.7252C233.367 75.2358 234.312 74.4859 235.068 73.533C236.565 71.4246 237.35 68.8098 237.289 66.1352V32.9014Z" fill="#999999"/>
<path d="M242.438 25.0894V59.0949H257.889C260.229 59.1093 262.503 58.2472 264.338 56.6505C265.044 55.9143 265.598 55.0198 265.962 54.0276C266.326 53.0354 266.493 51.9687 266.45 50.8996V41.2342C266.497 40.16 266.34 39.0867 265.988 38.0833C265.636 37.0799 265.097 36.1686 264.406 35.4081C263.715 34.6476 262.887 34.0547 261.975 33.6675C261.063 33.2802 260.088 33.1072 259.112 33.1596H253.443V38.4191H259.112C259.457 38.3758 259.807 38.4188 260.135 38.545C260.464 38.6711 260.762 38.8772 261.008 39.1477C261.254 39.4183 261.441 39.7464 261.556 40.1077C261.67 40.469 261.709 40.854 261.67 41.2342V50.8953C261.697 51.2554 261.652 51.6177 261.537 51.9562C261.421 52.2946 261.24 52.6007 261.004 52.8525C260.176 53.5581 259.16 53.9444 258.113 53.9518H247.217V25.0894H242.438Z" fill="#999999"/>
<path d="M320.695 25.0894V59.0949H305.244C302.904 59.1093 300.63 58.2472 298.795 56.6505C298.089 55.9143 297.535 55.0198 297.171 54.0276C296.807 53.0354 296.64 51.9687 296.683 50.8996V41.2342C296.635 40.16 296.793 39.0867 297.145 38.0833C297.497 37.0799 298.035 36.1686 298.727 35.4081C299.418 34.6476 300.246 34.0547 301.158 33.6675C302.07 33.2802 303.045 33.1072 304.021 33.1596H309.69V38.4191H304.021C303.676 38.3758 303.326 38.4188 302.997 38.545C302.669 38.6711 302.371 38.8772 302.125 39.1477C301.879 39.4183 301.692 39.7464 301.577 40.1077C301.463 40.469 301.423 40.854 301.463 41.2342V50.8953C301.436 51.2554 301.481 51.6176 301.597 51.956C301.712 52.2944 301.893 52.6005 302.129 52.8525C302.957 53.5581 303.973 53.9444 305.02 53.9518H315.916V25.0894H320.695Z" fill="#999999"/>
<path d="M276.009 33.0391H271.229V59.3364H276.009V33.0391Z" fill="#999999"/>
<path d="M288.569 33.0389C287.598 33.006 286.63 33.1924 285.726 33.5865C284.823 33.9807 284.002 34.5743 283.314 35.3307C282.627 36.0872 282.087 36.9904 281.729 37.985C281.371 38.9795 281.202 40.0442 281.231 41.1134V59.3362H286.011V41.1134C285.972 40.7333 286.011 40.3482 286.125 39.9869C286.24 39.6257 286.427 39.2975 286.673 39.027C286.919 38.7564 287.217 38.5503 287.546 38.4242C287.874 38.298 288.224 38.255 288.569 38.2983H294.238V33.0389H288.569Z" fill="#999999"/>
<path d="M104.977 24.3738L103.978 24.1108L104.311 25.3007C105.115 28.6361 106.868 31.6005 109.314 33.759C110.567 34.7399 111.571 36.0558 112.232 37.5826C112.894 39.1093 113.191 40.7964 113.095 42.4845L113.318 53.4561C113.22 57.01 112.055 60.4281 110.006 63.1776C107.958 65.9271 105.14 67.8536 101.992 68.6569C101.742 67.6682 101.629 66.6434 101.659 65.6176C102.139 60.8637 104.15 56.4561 107.328 53.1932C108.751 51.3868 109.811 49.2698 110.439 46.9809L110.772 45.7911L109.773 46.1877C91.32 54.3787 97.0988 76.4599 97.0988 76.5935L97.3221 76.9901H97.6551C97.8784 76.9901 118.776 74.8734 118.776 52.5336V43.2778C118.651 34.8195 113.871 28.34 104.977 24.3738Z" fill="#999999"/>
<path d="M134.988 24.3869L135.979 23.9902L135.646 25.1801C134.843 28.5155 133.089 31.4799 130.643 33.6384C129.391 34.6193 128.386 35.9352 127.725 37.462C127.063 38.9887 126.766 40.6758 126.862 42.3639L126.639 53.3355C126.738 56.8912 127.905 60.3106 129.956 63.0603C132.007 65.81 134.827 67.7355 137.977 68.5363C138.227 67.5476 138.34 66.5228 138.31 65.497C137.83 60.7431 135.819 56.3354 132.641 53.0725C131.218 51.2662 130.158 49.1492 129.53 46.8603L129.197 45.6705L129.981 46.0671C148.543 54.2581 142.655 76.3393 142.655 76.4729L142.432 76.8695H142.208C141.985 76.8695 121.087 74.7528 121.087 52.413V43.1571C121.534 34.8282 126.318 28.353 134.988 24.3869Z" fill="#999999"/>
</g>
<defs>
<clipPath id="clip0_1_3492">
<rect width="224.466" height="53" fill="white" transform="translate(96.2251 23.9902)"/>
</clipPath>
</defs>
</svg>
