<svg width="415" height="100" viewBox="0 0 415 100" fill="none" xmlns="http://www.w3.org/2000/svg">
<rect x="0.5" y="-0.00976562" width="414.117" height="100" rx="4" fill="#333333"/>
<g clip-path="url(#clip0_1_3491)">
<path d="M149.948 59.9112C148.765 59.9228 147.606 59.5521 146.616 58.846C145.627 58.1399 144.852 57.13 144.389 55.9442C143.927 54.7583 143.797 53.4497 144.018 52.1838C144.238 50.9179 144.798 49.7516 145.627 48.8323C146.455 47.9131 147.516 47.2821 148.674 47.0193C149.832 46.7565 151.036 46.8736 152.133 47.3559C153.23 47.8381 154.171 48.6638 154.837 49.7285C155.503 50.7933 155.864 52.0492 155.875 53.3376C155.884 55.0635 155.265 56.723 154.155 57.9544C153.045 59.1858 151.532 59.8892 149.948 59.9112ZM160.728 46.6461V42.1827H153.504C152.38 41.6702 151.166 41.4333 149.948 41.4886C148.49 41.4535 147.041 41.7384 145.687 42.3263C144.333 42.9141 143.101 43.7929 142.065 44.9102C141.029 46.0275 140.21 47.3606 139.657 48.8299C139.104 50.2992 138.828 51.8747 138.846 53.4626C138.827 55.0352 139.1 56.5958 139.647 58.0512C140.194 59.5067 141.005 60.8271 142.031 61.9337C143.057 63.0402 144.277 63.9103 145.619 64.4918C146.961 65.0734 148.396 65.3546 149.84 65.3185C151.281 65.3449 152.712 65.0572 154.05 64.4722C155.388 63.8872 156.605 63.0168 157.629 61.9122C158.653 60.8075 159.464 59.491 160.015 58.0399C160.565 56.5888 160.843 55.0325 160.833 53.4626C160.857 51.2816 160.254 49.1472 159.109 47.3576L160.728 46.6461ZM125.912 59.9112C124.729 59.9228 123.569 59.5521 122.58 58.846C121.591 58.1399 120.816 57.13 120.353 55.9442C119.89 54.7583 119.761 53.4497 119.981 52.1838C120.202 50.9179 120.762 49.7516 121.59 48.8323C122.419 47.9131 123.48 47.2821 124.638 47.0193C125.796 46.7565 127 46.8736 128.097 47.3559C129.194 47.8381 130.135 48.6638 130.801 49.7285C131.467 50.7933 131.828 52.0492 131.839 53.3376C131.861 54.1975 131.724 55.0535 131.435 55.8542C131.147 56.655 130.713 57.3841 130.159 57.9979C129.606 58.6116 128.945 59.0974 128.215 59.4262C127.485 59.755 126.702 59.9199 125.912 59.9112ZM125.912 41.4782C124.468 41.4421 123.033 41.7233 121.691 42.3049C120.35 42.8864 119.129 43.7565 118.103 44.863C117.077 45.9696 116.266 47.29 115.719 48.7455C115.172 50.2009 114.899 51.7615 114.918 53.3341C114.906 54.9102 115.183 56.4731 115.731 57.9317C116.279 59.3903 117.088 60.7154 118.112 61.8299C119.135 62.9444 120.352 63.8259 121.691 64.423C123.03 65.0202 124.465 65.3211 125.912 65.3081C128.814 65.3081 131.596 64.0526 133.648 61.8178C135.7 59.583 136.853 56.5519 136.853 53.3914C136.853 50.2309 135.7 47.1998 133.648 44.965C131.596 42.7302 128.814 41.4747 125.912 41.4747V41.4782ZM107.694 64.7112H112.761V32.7806H107.694V64.7112ZM162.991 64.7112H168.057V42.1827H162.991V64.7112ZM149.948 72.5897C149.167 72.6018 148.391 72.4432 147.667 72.123C146.943 71.8029 146.285 71.3279 145.732 70.726C145.18 70.1241 144.743 69.4076 144.449 68.6189C144.156 67.8302 144.01 66.9853 144.021 66.1341H138.846C138.827 67.7068 139.1 69.2674 139.647 70.7228C140.194 72.1783 141.005 73.4987 142.031 74.6053C143.057 75.7118 144.277 76.5819 145.619 77.1634C146.961 77.745 148.396 78.0261 149.84 77.9901C151.287 78.0187 152.724 77.7333 154.069 77.1505C155.413 76.5677 156.638 75.6993 157.671 74.5958C158.705 73.4923 159.526 72.1758 160.088 70.723C160.649 69.2703 160.939 67.7103 160.942 66.1341H155.875C155.877 66.9825 155.725 67.823 155.428 68.6073C155.131 69.3915 154.694 70.1041 154.144 70.704C153.593 71.3039 152.939 71.7793 152.219 72.1029C151.499 72.4266 150.727 72.592 149.948 72.5897ZM187.135 51.1059C187.396 49.7747 188.079 48.586 189.064 47.7488C190.05 46.9116 191.275 46.4794 192.523 46.5281C193.767 46.4468 194.994 46.8694 195.969 47.7146C196.944 48.5597 197.597 49.7676 197.804 51.1059H187.135ZM192.74 41.4782C191.294 41.4479 189.857 41.7378 188.517 42.3304C187.176 42.9229 185.96 43.8058 184.942 44.9254C183.925 46.045 183.126 47.378 182.595 48.8437C182.065 50.3094 181.813 51.8772 181.855 53.4522C181.784 55.0188 182.019 56.584 182.545 58.0446C183.07 59.5052 183.873 60.8281 184.901 61.9262C185.929 63.0244 187.16 63.8728 188.511 64.4156C189.862 64.9584 191.303 65.1833 192.74 65.0756C194.482 65.0793 196.207 64.7077 197.817 63.9822C199.426 63.2567 200.888 62.1916 202.118 60.8482L198.562 56.9749C197.845 57.8641 196.968 58.5835 195.985 59.0885C195.002 59.5936 193.935 59.8736 192.849 59.9112C191.572 59.9738 190.316 59.5525 189.293 58.7189C188.271 57.8854 187.545 56.6913 187.24 55.3402H203.291V54.0491C203.414 52.4547 203.232 50.8498 202.757 49.3356C202.283 47.8214 201.525 46.4305 200.533 45.2507C199.541 44.0708 198.335 43.1274 196.992 42.48C195.648 41.8325 194.196 41.495 192.727 41.4886L192.74 41.4782ZM238.225 41.4782C237.057 41.4194 235.891 41.6413 234.811 42.1284C233.73 42.6155 232.761 43.3557 231.973 44.2964V32.673H226.906V64.6036H231.97V52.3971C231.915 51.6731 232.006 50.9448 232.236 50.263C232.466 49.5812 232.83 48.9622 233.303 48.4494C233.775 47.9366 234.344 47.5421 234.971 47.2936C235.598 47.0451 236.267 46.9485 236.931 47.0105C239.841 47.0105 241.459 49.0062 241.459 52.4109V64.607H246.526V51.4565C246.677 50.1883 246.573 48.8997 246.222 47.6793C245.872 46.459 245.282 45.3359 244.495 44.3875C243.707 43.4391 242.741 42.6879 241.661 42.1857C240.581 41.6834 239.414 41.442 238.241 41.4782H238.225ZM215.919 46.9966C216.944 47.0283 217.95 47.3083 218.863 47.8161C219.777 48.324 220.575 49.0471 221.199 49.9328L224.755 46.0595C223.703 44.6178 222.355 43.4637 220.821 42.6895C219.286 41.9152 217.606 41.542 215.916 41.5997C214.471 41.5727 213.035 41.8595 211.692 42.4433C210.35 43.0272 209.127 43.8963 208.097 45C207.066 46.1038 206.247 47.4201 205.688 48.8721C205.129 50.3242 204.841 51.8829 204.841 53.4574C204.841 55.0318 205.129 56.5905 205.688 58.0426C206.247 59.4946 207.066 60.8109 208.097 61.9147C209.127 63.0184 210.35 63.8876 211.692 64.4714C213.035 65.0552 214.471 65.342 215.916 65.3151C217.595 65.2952 219.251 64.8874 220.775 64.1186C222.299 63.3498 223.656 62.2375 224.755 60.8552L221.199 56.9819C220.55 57.8384 219.747 58.5408 218.839 59.0458C217.93 59.5508 216.937 59.8477 215.919 59.9181C215.149 59.9256 214.385 59.7619 213.675 59.4371C212.964 59.1124 212.322 58.6333 211.787 58.0291C211.253 57.4249 210.837 56.7084 210.565 55.9233C210.293 55.1381 210.171 54.3008 210.206 53.4626C210.161 52.6218 210.277 51.7801 210.545 50.9904C210.814 50.2007 211.229 49.48 211.766 48.8737C212.303 48.2674 212.949 47.7886 213.663 47.4673C214.378 47.1461 215.146 46.9894 215.919 47.007V46.9966ZM178.404 35.2552H173.337V42.1966H170.641V47.1146H173.337V64.607H178.404V47.1146H181.304V42.1827H178.404V35.2413V35.2552ZM165.69 32.0864C165.235 32.0957 164.786 32.2039 164.371 32.4048C163.955 32.6056 163.58 32.895 163.269 33.256C162.957 33.6169 162.715 34.042 162.557 34.5064C162.399 34.9707 162.327 35.4649 162.347 35.9597C162.351 36.9239 162.705 37.8473 163.331 38.5291C163.957 39.2109 164.804 39.596 165.69 39.6005C166.144 39.6219 166.598 39.5441 167.024 39.3716C167.45 39.1991 167.841 38.9355 168.172 38.5962C168.503 38.257 168.769 37.849 168.953 37.3962C169.138 36.9434 169.237 36.455 169.246 35.9597C169.202 34.9477 168.814 33.9898 168.156 33.2734C167.498 32.557 166.619 32.1337 165.69 32.0864Z" fill="#999999"/>
<path fill-rule="evenodd" clip-rule="evenodd" d="M285.65 21.9903V33.3777C281.763 33.3777 278.035 35.0598 275.286 38.0538C272.537 41.0479 270.992 45.1087 270.992 49.343C270.992 53.5773 272.537 57.6381 275.286 60.6322C278.035 63.6262 281.763 65.3083 285.65 65.3083V76.6957C278.99 76.6957 272.602 73.8137 267.892 68.6838C263.182 63.5538 260.536 56.5961 260.536 49.3413C260.536 42.0864 263.182 35.1287 267.892 29.9987C272.602 24.8688 278.99 21.9868 285.65 21.9868V21.9903Z" fill="#999999"/>
<path fill-rule="evenodd" clip-rule="evenodd" d="M285.976 44.4146V55.566H298.155V68.831H308.501V44.4146H285.976Z" fill="#999999"/>
<path d="M308.501 71.5171H311.521V72.2117H310.334V76.452H309.796V72.2117H308.501V71.5171Z" fill="#999999"/>
<path d="M314.538 75.5109H314.219L312.803 73.1632V76.452H312.166V71.5171H312.704L314.429 74.4551L316.049 71.5171H316.588V76.452H315.95V73.1632L314.538 75.5109Z" fill="#999999"/>
</g>
<defs>
<clipPath id="clip0_1_3491">
<rect width="208.891" height="56" fill="white" transform="translate(107.694 21.9902)"/>
</clipPath>
</defs>
</svg>
