<svg width="415" height="100" viewBox="0 0 415 100" fill="none" xmlns="http://www.w3.org/2000/svg">
<rect x="0.382324" y="-0.00976562" width="414.117" height="100" rx="4" fill="#333333"/>
<path d="M150.637 79.9902H264.702V20.9902H150.637V79.9902Z" fill="#999999"/>
<path fill-rule="evenodd" clip-rule="evenodd" d="M251.829 49.4955H242.841V34.9658H251.64V37.6232H245.685V40.7212H251.185V43.475H245.685V46.5352H251.829V49.4955Z" fill="#333333"/>
<path fill-rule="evenodd" clip-rule="evenodd" d="M241.172 37.6232H237.284V49.4955H234.445V37.6232H230.553V34.9658H241.172V37.6232Z" fill="#333333"/>
<path fill-rule="evenodd" clip-rule="evenodd" d="M228.053 49.4955L226.952 46.1738H222.098L220.998 49.4955H218.115L222.792 34.9658H226.261L230.926 49.4955H228.053Z" fill="#333333"/>
<path fill-rule="evenodd" clip-rule="evenodd" d="M227.737 64.5552C227.526 64.9984 227.233 65.3887 226.876 65.7014C226.477 66.0436 226.016 66.2899 225.523 66.4243C224.929 66.5904 224.317 66.6702 223.703 66.6618C223.053 66.6706 222.405 66.5636 221.786 66.3451C221.254 66.1621 220.759 65.8688 220.329 65.4811C219.921 65.0906 219.61 64.593 219.427 64.0354C219.211 63.3852 219.11 62.6959 219.131 62.0045H221.531C221.497 62.6249 221.685 63.2354 222.054 63.7084C222.512 64.1425 223.1 64.3777 223.707 64.3693C224.208 64.4192 224.713 64.328 225.173 64.1042C225.326 64.0315 225.462 63.9224 225.571 63.7848C225.68 63.6472 225.76 63.4846 225.804 63.3091C225.841 63.1628 225.849 63.0098 225.828 62.8598C225.808 62.7098 225.759 62.5662 225.684 62.4382C225.429 62.1039 225.085 61.8635 224.7 61.7497C224.195 61.5501 223.299 61.1795 222.01 60.6379C220.269 59.8967 219.42 58.7848 219.462 57.3024C219.47 56.8204 219.586 56.3479 219.799 55.9255C220.016 55.501 220.313 55.1315 220.67 54.8412C221.064 54.5288 221.506 54.2957 221.975 54.1527C222.542 53.9789 223.128 53.8954 223.716 53.9049C224.331 53.8831 224.945 53.9786 225.529 54.1871C226.022 54.3647 226.483 54.6337 226.892 54.9823C227.258 55.2996 227.553 55.7048 227.753 56.1664C227.96 56.6645 228.062 57.2066 228.052 57.7533H225.634C225.658 57.5218 225.627 57.2873 225.542 57.0733C225.457 56.8594 225.323 56.6736 225.151 56.5348C224.731 56.289 224.267 56.146 223.791 56.1157C223.315 56.0854 222.838 56.1685 222.395 56.3592C222.248 56.4417 222.121 56.5618 222.025 56.7092C221.93 56.8567 221.868 57.0271 221.846 57.206C221.826 57.38 221.853 57.5567 221.925 57.7136C221.997 57.8705 222.11 58.0006 222.25 58.0872C222.688 58.3897 223.158 58.6325 223.65 58.8101L225.132 59.3918C226.032 59.6775 226.856 60.1945 227.535 60.8995C227.946 61.4901 228.142 62.226 228.084 62.9649C228.079 63.5244 227.961 64.0757 227.737 64.5793V64.5552Z" fill="#333333"/>
<path fill-rule="evenodd" clip-rule="evenodd" d="M215.416 66.4484L213.385 62.0905H211.492V66.4484H209.073V54.0976H213.457C214.055 54.0906 214.65 54.1682 215.23 54.3282C215.718 54.4613 216.176 54.7014 216.576 55.0339C216.947 55.3519 217.24 55.7645 217.431 56.2352C217.64 56.7798 217.741 57.3663 217.727 57.9564C217.764 58.7874 217.592 59.6137 217.229 60.3453C216.857 60.9757 216.316 61.466 215.681 61.7497L218.308 66.4415L215.416 66.4484Z" fill="#333333"/>
<path fill-rule="evenodd" clip-rule="evenodd" d="M205.109 37.6232H204.958V49.4955H202.435V34.9658H206.967L209.489 45.2925H209.641L212.164 34.9658H216.696V49.4955H214.173V37.6232H214.021L210.868 49.4955H208.25L205.109 37.6232Z" fill="#333333"/>
<path fill-rule="evenodd" clip-rule="evenodd" d="M205.538 66.4484L204.592 63.6258H200.476L199.53 66.4484H197.08L201.044 54.0977H204.008L207.973 66.4484H205.538Z" fill="#333333"/>
<path fill-rule="evenodd" clip-rule="evenodd" d="M195.72 66.4484H188.082V54.0977H195.56V56.3558H190.514V59.0029H195.187V61.3298H190.501V63.9253H195.72V66.4484Z" fill="#333333"/>
<path fill-rule="evenodd" clip-rule="evenodd" d="M196.71 49.4955H199.593V34.9658H196.71V49.4955Z" fill="#333333"/>
<path fill-rule="evenodd" clip-rule="evenodd" d="M184.197 37.6232V34.9658H194.815V37.6232H190.93V49.4955H188.091V37.6232H184.197Z" fill="#333333"/>
<path fill-rule="evenodd" clip-rule="evenodd" d="M185.524 49.4955H176.672V34.9658H179.51V46.5352H185.524V49.4955Z" fill="#333333"/>
<path fill-rule="evenodd" clip-rule="evenodd" d="M174.243 43.2479C174.243 43.8284 174.231 44.3333 174.205 44.7624C174.185 45.1496 174.141 45.5349 174.073 45.9156C174.018 46.2253 173.932 46.5277 173.817 46.8175C173.704 47.0929 173.567 47.3567 173.411 47.6057C172.875 48.3523 172.175 48.9396 171.376 49.3132C170.578 49.6868 169.706 49.8347 168.841 49.7434C167.976 49.8347 167.104 49.6868 166.305 49.3132C165.507 48.9396 164.807 48.3523 164.271 47.6057C164.114 47.3569 163.978 47.0931 163.864 46.8175C163.749 46.5278 163.664 46.2254 163.609 45.9156C163.541 45.5384 163.497 45.1565 163.476 44.7728C163.451 44.3505 163.438 43.8422 163.438 43.2479V34.9658H166.277V43.3098C166.262 43.9257 166.326 44.5409 166.466 45.1376C166.605 45.6281 166.887 46.0551 167.27 46.3528C167.735 46.6848 168.279 46.8616 168.835 46.8616C169.39 46.8616 169.934 46.6848 170.399 46.3528C170.782 46.0549 171.064 45.6279 171.203 45.1376C171.343 44.5408 171.407 43.9257 171.392 43.3098V34.9658H174.231L174.243 43.2479Z" fill="#333333"/>
<path d="M213.709 56.2903H211.486V59.6087H213.709C214.189 59.6552 214.668 59.5001 215.046 59.1749C215.316 58.8346 215.465 58.3996 215.465 57.9495C215.465 57.4994 215.316 57.0644 215.046 56.7241C214.668 56.3989 214.189 56.2438 213.709 56.2903Z" fill="#999999"/>
<path d="M224.448 37.623L222.647 43.4749H226.4L224.599 37.623H224.448Z" fill="#999999"/>
<path d="M202.475 56.3076L200.943 61.2817H204.134L202.601 56.3076H202.475Z" fill="#999999"/>
</svg>
