<svg width="167" height="69" viewBox="0 0 167 69" fill="none" xmlns="http://www.w3.org/2000/svg">
<g filter="url(#filter0_d_1_3572)">
<rect x="1" y="1" width="100" height="63" rx="10" fill="#28C963" shape-rendering="crispEdges"/>
<rect x="1.5" y="1.5" width="99" height="62" rx="9.5" stroke="#E2E2E2" shape-rendering="crispEdges"/>
<path d="M12.2979 11.7578V21H11.0728V11.7578H12.2979ZM16.1699 15.9155V16.9185H12.0312V15.9155H16.1699ZM16.7983 11.7578V12.7607H12.0312V11.7578H16.7983ZM21.9146 19.8257V16.29C21.9146 16.0192 21.8595 15.7843 21.7495 15.5854C21.6437 15.3823 21.4829 15.2257 21.2671 15.1157C21.0513 15.0057 20.7847 14.9507 20.4673 14.9507C20.1711 14.9507 19.9108 15.0015 19.6865 15.103C19.4665 15.2046 19.293 15.3379 19.166 15.5029C19.0433 15.668 18.9819 15.8457 18.9819 16.0361H17.8076C17.8076 15.7907 17.8711 15.5474 17.998 15.3062C18.125 15.0649 18.307 14.847 18.5439 14.6523C18.7852 14.4535 19.0729 14.2969 19.4072 14.1826C19.7458 14.0641 20.1224 14.0049 20.5371 14.0049C21.0365 14.0049 21.4766 14.0895 21.8574 14.2588C22.2425 14.4281 22.543 14.6841 22.7588 15.0269C22.9788 15.3654 23.0889 15.7907 23.0889 16.3027V19.502C23.0889 19.7305 23.1079 19.9738 23.146 20.2319C23.1883 20.4901 23.2497 20.7122 23.3301 20.8984V21H22.105C22.0457 20.8646 21.9992 20.6847 21.9653 20.4604C21.9315 20.2319 21.9146 20.0203 21.9146 19.8257ZM22.1177 16.8359L22.1304 17.6611H20.9434C20.609 17.6611 20.3107 17.6886 20.0483 17.7437C19.786 17.7944 19.5659 17.8727 19.3882 17.9785C19.2104 18.0843 19.075 18.2176 18.9819 18.3784C18.8888 18.535 18.8423 18.7191 18.8423 18.9307C18.8423 19.1465 18.891 19.3433 18.9883 19.521C19.0856 19.6987 19.2316 19.8405 19.4263 19.9463C19.6252 20.0479 19.8685 20.0986 20.1562 20.0986C20.516 20.0986 20.8333 20.0225 21.1084 19.8701C21.3835 19.7178 21.6014 19.5316 21.7622 19.3115C21.9272 19.0915 22.0161 18.8778 22.0288 18.6704L22.5303 19.2354C22.5007 19.4131 22.4202 19.6099 22.2891 19.8257C22.1579 20.0415 21.9823 20.2489 21.7622 20.4478C21.5464 20.6424 21.2882 20.8053 20.9878 20.9365C20.6916 21.0635 20.3573 21.127 19.9849 21.127C19.5194 21.127 19.111 21.036 18.7598 20.854C18.4128 20.672 18.1419 20.4287 17.9473 20.124C17.7568 19.8151 17.6616 19.4702 17.6616 19.0894C17.6616 18.7212 17.7336 18.3975 17.8774 18.1182C18.0213 17.8346 18.2287 17.5998 18.4995 17.4136C18.7703 17.2231 19.0962 17.0793 19.4771 16.9819C19.8579 16.8846 20.2832 16.8359 20.7529 16.8359H22.1177ZM26.2119 11.25V21H25.0312V11.25H26.2119ZM30.9473 21.127C30.4691 21.127 30.0353 21.0465 29.646 20.8857C29.2609 20.7207 28.9287 20.4901 28.6494 20.1938C28.3743 19.8976 28.1628 19.5464 28.0146 19.1401C27.8665 18.7339 27.7925 18.2896 27.7925 17.8071V17.5405C27.7925 16.9819 27.875 16.4847 28.04 16.0488C28.2051 15.6087 28.4294 15.2363 28.7129 14.9316C28.9964 14.627 29.318 14.3963 29.6777 14.2397C30.0374 14.0832 30.4098 14.0049 30.7949 14.0049C31.2858 14.0049 31.709 14.0895 32.0645 14.2588C32.4242 14.4281 32.7183 14.665 32.9468 14.9697C33.1753 15.2702 33.3446 15.6257 33.4546 16.0361C33.5646 16.4424 33.6196 16.8867 33.6196 17.3691V17.896H28.4907V16.9375H32.4453V16.8486C32.4284 16.5439 32.3649 16.2477 32.2549 15.96C32.1491 15.6722 31.9798 15.4352 31.7471 15.249C31.5143 15.0628 31.1969 14.9697 30.7949 14.9697C30.5283 14.9697 30.2829 15.0269 30.0586 15.1411C29.8343 15.2511 29.6418 15.4162 29.481 15.6362C29.3201 15.8563 29.1953 16.125 29.1064 16.4424C29.0176 16.7598 28.9731 17.1258 28.9731 17.5405V17.8071C28.9731 18.133 29.0176 18.4398 29.1064 18.7275C29.1995 19.0111 29.3328 19.2607 29.5063 19.4766C29.6841 19.6924 29.8978 19.8617 30.1475 19.9844C30.4014 20.1071 30.6891 20.1685 31.0107 20.1685C31.4255 20.1685 31.7767 20.0838 32.0645 19.9146C32.3522 19.7453 32.604 19.5189 32.8198 19.2354L33.5308 19.8003C33.3826 20.0246 33.1943 20.2383 32.9658 20.4414C32.7373 20.6445 32.4559 20.8096 32.1216 20.9365C31.7915 21.0635 31.4001 21.127 30.9473 21.127ZM13.6436 35.1621C13.9229 35.1621 14.181 35.105 14.418 34.9907C14.6549 34.8765 14.8496 34.7199 15.002 34.521C15.1543 34.3179 15.241 34.0872 15.2622 33.8291H16.3794C16.3582 34.2354 16.2207 34.6141 15.9668 34.9653C15.7171 35.3123 15.3892 35.5938 14.9829 35.8096C14.5767 36.0212 14.1302 36.127 13.6436 36.127C13.1273 36.127 12.6766 36.036 12.2915 35.854C11.9106 35.672 11.5933 35.4224 11.3394 35.105C11.0897 34.7876 10.9014 34.4237 10.7744 34.0132C10.6517 33.5985 10.5903 33.1605 10.5903 32.6992V32.4326C10.5903 31.9714 10.6517 31.5355 10.7744 31.125C10.9014 30.7103 11.0897 30.3442 11.3394 30.0269C11.5933 29.7095 11.9106 29.4598 12.2915 29.2778C12.6766 29.0959 13.1273 29.0049 13.6436 29.0049C14.181 29.0049 14.6507 29.1149 15.0527 29.335C15.4548 29.5508 15.77 29.847 15.9985 30.2236C16.2313 30.596 16.3582 31.0192 16.3794 31.4932H15.2622C15.241 31.2096 15.1606 30.9536 15.021 30.7251C14.8856 30.4966 14.6994 30.3146 14.4624 30.1792C14.2297 30.0396 13.9567 29.9697 13.6436 29.9697C13.2839 29.9697 12.9813 30.0417 12.7358 30.1855C12.4946 30.3252 12.3021 30.5156 12.1582 30.7568C12.0186 30.9938 11.917 31.2583 11.8535 31.5503C11.7943 31.8381 11.7646 32.1322 11.7646 32.4326V32.6992C11.7646 32.9997 11.7943 33.2959 11.8535 33.5879C11.9128 33.8799 12.0122 34.1444 12.1519 34.3813C12.2957 34.6183 12.4883 34.8088 12.7295 34.9526C12.9749 35.0923 13.2796 35.1621 13.6436 35.1621ZM17.3887 32.6421V32.4961C17.3887 32.001 17.4606 31.5418 17.6045 31.1187C17.7484 30.6912 17.9557 30.321 18.2266 30.0078C18.4974 29.6904 18.8254 29.445 19.2104 29.2715C19.5955 29.0938 20.0272 29.0049 20.5054 29.0049C20.9878 29.0049 21.4215 29.0938 21.8066 29.2715C22.196 29.445 22.526 29.6904 22.7969 30.0078C23.0719 30.321 23.2814 30.6912 23.4253 31.1187C23.5692 31.5418 23.6411 32.001 23.6411 32.4961V32.6421C23.6411 33.1372 23.5692 33.5964 23.4253 34.0195C23.2814 34.4427 23.0719 34.813 22.7969 35.1304C22.526 35.4435 22.1981 35.689 21.813 35.8667C21.4321 36.0402 21.0005 36.127 20.5181 36.127C20.0356 36.127 19.6019 36.0402 19.2168 35.8667C18.8317 35.689 18.5016 35.4435 18.2266 35.1304C17.9557 34.813 17.7484 34.4427 17.6045 34.0195C17.4606 33.5964 17.3887 33.1372 17.3887 32.6421ZM18.563 32.4961V32.6421C18.563 32.9849 18.6032 33.3086 18.6836 33.6133C18.764 33.9137 18.8846 34.1803 19.0454 34.4131C19.2104 34.6458 19.4157 34.8299 19.6611 34.9653C19.9066 35.0965 20.1922 35.1621 20.5181 35.1621C20.8397 35.1621 21.1211 35.0965 21.3623 34.9653C21.6077 34.8299 21.8109 34.6458 21.9717 34.4131C22.1325 34.1803 22.2531 33.9137 22.3335 33.6133C22.4181 33.3086 22.4604 32.9849 22.4604 32.6421V32.4961C22.4604 32.1576 22.4181 31.8381 22.3335 31.5376C22.2531 31.2329 22.1304 30.9642 21.9653 30.7314C21.8045 30.4945 21.6014 30.3083 21.356 30.1729C21.1147 30.0374 20.8312 29.9697 20.5054 29.9697C20.1838 29.9697 19.9002 30.0374 19.6548 30.1729C19.4136 30.3083 19.2104 30.4945 19.0454 30.7314C18.8846 30.9642 18.764 31.2329 18.6836 31.5376C18.6032 31.8381 18.563 32.1576 18.563 32.4961ZM26.2881 30.5981V36H25.1138V29.1318H26.2246L26.2881 30.5981ZM26.0088 32.3057L25.52 32.2866C25.5243 31.8169 25.5941 31.3831 25.7295 30.9854C25.8649 30.5833 26.0553 30.2342 26.3008 29.938C26.5462 29.6418 26.8382 29.4132 27.1768 29.2524C27.5195 29.0874 27.8983 29.0049 28.313 29.0049C28.6515 29.0049 28.9562 29.0514 29.2271 29.1445C29.4979 29.2334 29.7285 29.3773 29.9189 29.5762C30.1136 29.7751 30.2617 30.0332 30.3633 30.3506C30.4648 30.6637 30.5156 31.0467 30.5156 31.4995V36H29.335V31.4868C29.335 31.1271 29.2821 30.8394 29.1763 30.6235C29.0705 30.4035 28.916 30.2448 28.7129 30.1475C28.5098 30.0459 28.2601 29.9951 27.9639 29.9951C27.6719 29.9951 27.4053 30.0565 27.1641 30.1792C26.9271 30.3019 26.7218 30.4712 26.5483 30.687C26.3791 30.9028 26.2458 31.1504 26.1484 31.4297C26.0553 31.7048 26.0088 31.9967 26.0088 32.3057ZM31.9883 32.6421V32.4961C31.9883 32.001 32.0602 31.5418 32.2041 31.1187C32.348 30.6912 32.5553 30.321 32.8262 30.0078C33.097 29.6904 33.425 29.445 33.8101 29.2715C34.1951 29.0938 34.6268 29.0049 35.105 29.0049C35.5874 29.0049 36.0212 29.0938 36.4062 29.2715C36.7956 29.445 37.1257 29.6904 37.3965 30.0078C37.6715 30.321 37.881 30.6912 38.0249 31.1187C38.1688 31.5418 38.2407 32.001 38.2407 32.4961V32.6421C38.2407 33.1372 38.1688 33.5964 38.0249 34.0195C37.881 34.4427 37.6715 34.813 37.3965 35.1304C37.1257 35.4435 36.7977 35.689 36.4126 35.8667C36.0317 36.0402 35.6001 36.127 35.1177 36.127C34.6353 36.127 34.2015 36.0402 33.8164 35.8667C33.4313 35.689 33.1012 35.4435 32.8262 35.1304C32.5553 34.813 32.348 34.4427 32.2041 34.0195C32.0602 33.5964 31.9883 33.1372 31.9883 32.6421ZM33.1626 32.4961V32.6421C33.1626 32.9849 33.2028 33.3086 33.2832 33.6133C33.3636 33.9137 33.4842 34.1803 33.645 34.4131C33.8101 34.6458 34.0153 34.8299 34.2607 34.9653C34.5062 35.0965 34.7918 35.1621 35.1177 35.1621C35.4393 35.1621 35.7207 35.0965 35.9619 34.9653C36.2074 34.8299 36.4105 34.6458 36.5713 34.4131C36.7321 34.1803 36.8527 33.9137 36.9331 33.6133C37.0177 33.3086 37.0601 32.9849 37.0601 32.6421V32.4961C37.0601 32.1576 37.0177 31.8381 36.9331 31.5376C36.8527 31.2329 36.73 30.9642 36.5649 30.7314C36.4041 30.4945 36.201 30.3083 35.9556 30.1729C35.7144 30.0374 35.4308 29.9697 35.105 29.9697C34.7834 29.9697 34.4998 30.0374 34.2544 30.1729C34.0132 30.3083 33.8101 30.4945 33.645 30.7314C33.4842 30.9642 33.3636 31.2329 33.2832 31.5376C33.2028 31.8381 33.1626 32.1576 33.1626 32.4961ZM43.7124 34.1782C43.7124 34.009 43.6743 33.8524 43.5981 33.7085C43.5262 33.5604 43.376 33.4271 43.1475 33.3086C42.9232 33.1859 42.5846 33.0801 42.1318 32.9912C41.751 32.9108 41.4061 32.8156 41.0972 32.7056C40.7925 32.5955 40.5322 32.4622 40.3164 32.3057C40.1048 32.1491 39.9419 31.965 39.8276 31.7534C39.7134 31.5418 39.6562 31.2943 39.6562 31.0107C39.6562 30.7399 39.7155 30.4839 39.834 30.2427C39.9567 30.0015 40.1281 29.7878 40.3481 29.6016C40.5724 29.4154 40.8411 29.2694 41.1543 29.1636C41.4674 29.0578 41.8166 29.0049 42.2017 29.0049C42.7518 29.0049 43.2215 29.1022 43.6108 29.2969C44.0002 29.4915 44.2985 29.7518 44.5059 30.0776C44.7132 30.3993 44.8169 30.7568 44.8169 31.1504H43.6426C43.6426 30.96 43.5854 30.7759 43.4712 30.5981C43.3612 30.4162 43.1982 30.266 42.9824 30.1475C42.7708 30.029 42.5106 29.9697 42.2017 29.9697C41.8758 29.9697 41.6113 30.0205 41.4082 30.1221C41.2093 30.2194 41.0633 30.3442 40.9702 30.4966C40.8813 30.6489 40.8369 30.8097 40.8369 30.979C40.8369 31.106 40.8581 31.2202 40.9004 31.3218C40.9469 31.4191 41.0273 31.5101 41.1416 31.5947C41.2559 31.6751 41.4167 31.7513 41.624 31.8232C41.8314 31.8952 42.0959 31.9671 42.4175 32.0391C42.9803 32.166 43.4437 32.3184 43.8076 32.4961C44.1715 32.6738 44.4424 32.8918 44.6201 33.1499C44.7979 33.408 44.8867 33.7212 44.8867 34.0894C44.8867 34.3898 44.8232 34.6649 44.6963 34.9146C44.5736 35.1642 44.3937 35.38 44.1567 35.562C43.924 35.7397 43.6447 35.8794 43.3188 35.981C42.9972 36.0783 42.6354 36.127 42.2334 36.127C41.6283 36.127 41.1162 36.019 40.6973 35.8032C40.2783 35.5874 39.9609 35.3081 39.7451 34.9653C39.5293 34.6226 39.4214 34.2607 39.4214 33.8799H40.6021C40.619 34.2015 40.7121 34.4575 40.8813 34.6479C41.0506 34.8341 41.258 34.9674 41.5034 35.0479C41.7489 35.124 41.9922 35.1621 42.2334 35.1621C42.555 35.1621 42.8237 35.1198 43.0396 35.0352C43.2596 34.9505 43.4268 34.8341 43.541 34.686C43.6553 34.5379 43.7124 34.3687 43.7124 34.1782ZM49.1777 35.1621C49.457 35.1621 49.7152 35.105 49.9521 34.9907C50.1891 34.8765 50.3838 34.7199 50.5361 34.521C50.6885 34.3179 50.7752 34.0872 50.7964 33.8291H51.9136C51.8924 34.2354 51.7549 34.6141 51.501 34.9653C51.2513 35.3123 50.9233 35.5938 50.5171 35.8096C50.1108 36.0212 49.6644 36.127 49.1777 36.127C48.6615 36.127 48.2108 36.036 47.8257 35.854C47.4448 35.672 47.1274 35.4224 46.8735 35.105C46.6239 34.7876 46.4355 34.4237 46.3086 34.0132C46.1859 33.5985 46.1245 33.1605 46.1245 32.6992V32.4326C46.1245 31.9714 46.1859 31.5355 46.3086 31.125C46.4355 30.7103 46.6239 30.3442 46.8735 30.0269C47.1274 29.7095 47.4448 29.4598 47.8257 29.2778C48.2108 29.0959 48.6615 29.0049 49.1777 29.0049C49.7152 29.0049 50.1849 29.1149 50.5869 29.335C50.9889 29.5508 51.3042 29.847 51.5327 30.2236C51.7655 30.596 51.8924 31.0192 51.9136 31.4932H50.7964C50.7752 31.2096 50.6948 30.9536 50.5552 30.7251C50.4198 30.4966 50.2336 30.3146 49.9966 30.1792C49.7638 30.0396 49.4909 29.9697 49.1777 29.9697C48.818 29.9697 48.5155 30.0417 48.27 30.1855C48.0288 30.3252 47.8363 30.5156 47.6924 30.7568C47.5527 30.9938 47.4512 31.2583 47.3877 31.5503C47.3285 31.8381 47.2988 32.1322 47.2988 32.4326V32.6992C47.2988 32.9997 47.3285 33.2959 47.3877 33.5879C47.4469 33.8799 47.5464 34.1444 47.686 34.3813C47.8299 34.6183 48.0225 34.8088 48.2637 34.9526C48.5091 35.0923 48.8138 35.1621 49.1777 35.1621ZM52.9229 32.6421V32.4961C52.9229 32.001 52.9948 31.5418 53.1387 31.1187C53.2826 30.6912 53.4899 30.321 53.7607 30.0078C54.0316 29.6904 54.3595 29.445 54.7446 29.2715C55.1297 29.0938 55.5614 29.0049 56.0396 29.0049C56.522 29.0049 56.9557 29.0938 57.3408 29.2715C57.7301 29.445 58.0602 29.6904 58.3311 30.0078C58.6061 30.321 58.8156 30.6912 58.9595 31.1187C59.1034 31.5418 59.1753 32.001 59.1753 32.4961V32.6421C59.1753 33.1372 59.1034 33.5964 58.9595 34.0195C58.8156 34.4427 58.6061 34.813 58.3311 35.1304C58.0602 35.4435 57.7323 35.689 57.3472 35.8667C56.9663 36.0402 56.5347 36.127 56.0522 36.127C55.5698 36.127 55.1361 36.0402 54.751 35.8667C54.3659 35.689 54.0358 35.4435 53.7607 35.1304C53.4899 34.813 53.2826 34.4427 53.1387 34.0195C52.9948 33.5964 52.9229 33.1372 52.9229 32.6421ZM54.0972 32.4961V32.6421C54.0972 32.9849 54.1374 33.3086 54.2178 33.6133C54.2982 33.9137 54.4188 34.1803 54.5796 34.4131C54.7446 34.6458 54.9499 34.8299 55.1953 34.9653C55.4408 35.0965 55.7264 35.1621 56.0522 35.1621C56.3739 35.1621 56.6553 35.0965 56.8965 34.9653C57.1419 34.8299 57.3451 34.6458 57.5059 34.4131C57.6667 34.1803 57.7873 33.9137 57.8677 33.6133C57.9523 33.3086 57.9946 32.9849 57.9946 32.6421V32.4961C57.9946 32.1576 57.9523 31.8381 57.8677 31.5376C57.7873 31.2329 57.6646 30.9642 57.4995 30.7314C57.3387 30.4945 57.1356 30.3083 56.8901 30.1729C56.6489 30.0374 56.3654 29.9697 56.0396 29.9697C55.7179 29.9697 55.4344 30.0374 55.189 30.1729C54.9478 30.3083 54.7446 30.4945 54.5796 30.7314C54.4188 30.9642 54.2982 31.2329 54.2178 31.5376C54.1374 31.8381 54.0972 32.1576 54.0972 32.4961ZM65.9609 34.9399L67.8398 29.1318H69.0396L66.5703 36H65.7832L65.9609 34.9399ZM64.3931 29.1318L66.3291 34.9717L66.4624 36H65.6753L63.187 29.1318H64.3931ZM71.4453 29.1318V36H70.2646V29.1318H71.4453ZM70.1758 27.3101C70.1758 27.1196 70.2329 26.9588 70.3472 26.8276C70.4657 26.6965 70.6392 26.6309 70.8677 26.6309C71.092 26.6309 71.2633 26.6965 71.3818 26.8276C71.5046 26.9588 71.5659 27.1196 71.5659 27.3101C71.5659 27.492 71.5046 27.6486 71.3818 27.7798C71.2633 27.9067 71.092 27.9702 70.8677 27.9702C70.6392 27.9702 70.4657 27.9067 70.3472 27.7798C70.2329 27.6486 70.1758 27.492 70.1758 27.3101ZM77.3804 34.8257V31.29C77.3804 31.0192 77.3254 30.7843 77.2153 30.5854C77.1095 30.3823 76.9487 30.2257 76.7329 30.1157C76.5171 30.0057 76.2505 29.9507 75.9331 29.9507C75.6369 29.9507 75.3766 30.0015 75.1523 30.103C74.9323 30.2046 74.7588 30.3379 74.6318 30.5029C74.5091 30.668 74.4478 30.8457 74.4478 31.0361H73.2734C73.2734 30.7907 73.3369 30.5474 73.4639 30.3062C73.5908 30.0649 73.7728 29.847 74.0098 29.6523C74.251 29.4535 74.5387 29.2969 74.873 29.1826C75.2116 29.0641 75.5882 29.0049 76.0029 29.0049C76.5023 29.0049 76.9424 29.0895 77.3232 29.2588C77.7083 29.4281 78.0088 29.6841 78.2246 30.0269C78.4447 30.3654 78.5547 30.7907 78.5547 31.3027V34.502C78.5547 34.7305 78.5737 34.9738 78.6118 35.2319C78.6541 35.4901 78.7155 35.7122 78.7959 35.8984V36H77.5708C77.5116 35.8646 77.465 35.6847 77.4312 35.4604C77.3973 35.2319 77.3804 35.0203 77.3804 34.8257ZM77.5835 31.8359L77.5962 32.6611H76.4092C76.0749 32.6611 75.7765 32.6886 75.5142 32.7437C75.2518 32.7944 75.0317 32.8727 74.854 32.9785C74.6763 33.0843 74.5409 33.2176 74.4478 33.3784C74.3547 33.535 74.3081 33.7191 74.3081 33.9307C74.3081 34.1465 74.3568 34.3433 74.4541 34.521C74.5514 34.6987 74.6974 34.8405 74.8921 34.9463C75.091 35.0479 75.3343 35.0986 75.6221 35.0986C75.9818 35.0986 76.2992 35.0225 76.5742 34.8701C76.8493 34.7178 77.0672 34.5316 77.228 34.3115C77.3931 34.0915 77.4819 33.8778 77.4946 33.6704L77.9961 34.2354C77.9665 34.4131 77.8861 34.6099 77.7549 34.8257C77.6237 35.0415 77.4481 35.2489 77.228 35.4478C77.0122 35.6424 76.7541 35.8053 76.4536 35.9365C76.1574 36.0635 75.8231 36.127 75.4507 36.127C74.9852 36.127 74.5768 36.036 74.2256 35.854C73.8786 35.672 73.6077 35.4287 73.4131 35.124C73.2227 34.8151 73.1274 34.4702 73.1274 34.0894C73.1274 33.7212 73.1994 33.3975 73.3433 33.1182C73.4871 32.8346 73.6945 32.5998 73.9653 32.4136C74.2362 32.2231 74.562 32.0793 74.9429 31.9819C75.3237 31.8846 75.749 31.8359 76.2188 31.8359H77.5835ZM13.5039 48.207L15.3384 41.7578H16.2271L15.7129 44.2651L13.7388 51H12.8564L13.5039 48.207ZM11.606 41.7578L13.0659 48.0801L13.5039 51H12.6279L10.3872 41.7578H11.606ZM18.6011 48.0737L20.0293 41.7578H21.2544L19.02 51H18.144L18.6011 48.0737ZM16.3604 41.7578L18.144 48.207L18.7915 51H17.9092L16.0049 44.2651L15.4844 41.7578H16.3604ZM23.6094 41.25V51H22.4351V41.25H23.6094ZM23.3301 47.3057L22.8413 47.2866C22.8455 46.8169 22.9154 46.3831 23.0508 45.9854C23.1862 45.5833 23.3766 45.2342 23.6221 44.938C23.8675 44.6418 24.1595 44.4132 24.498 44.2524C24.8408 44.0874 25.2196 44.0049 25.6343 44.0049C25.9728 44.0049 26.2775 44.0514 26.5483 44.1445C26.8192 44.2334 27.0498 44.3773 27.2402 44.5762C27.4349 44.7751 27.583 45.0332 27.6846 45.3506C27.7861 45.6637 27.8369 46.0467 27.8369 46.4995V51H26.6562V46.4868C26.6562 46.1271 26.6034 45.8394 26.4976 45.6235C26.3918 45.4035 26.2373 45.2448 26.0342 45.1475C25.8311 45.0459 25.5814 44.9951 25.2852 44.9951C24.9932 44.9951 24.7266 45.0565 24.4854 45.1792C24.2484 45.3019 24.0431 45.4712 23.8696 45.687C23.7004 45.9028 23.5671 46.1504 23.4697 46.4297C23.3766 46.7048 23.3301 46.9967 23.3301 47.3057ZM33.645 49.8257V46.29C33.645 46.0192 33.59 45.7843 33.48 45.5854C33.3742 45.3823 33.2134 45.2257 32.9976 45.1157C32.7817 45.0057 32.5151 44.9507 32.1978 44.9507C31.9015 44.9507 31.6413 45.0015 31.417 45.103C31.1969 45.2046 31.0234 45.3379 30.8965 45.5029C30.7738 45.668 30.7124 45.8457 30.7124 46.0361H29.5381C29.5381 45.7907 29.6016 45.5474 29.7285 45.3062C29.8555 45.0649 30.0374 44.847 30.2744 44.6523C30.5156 44.4535 30.8034 44.2969 31.1377 44.1826C31.4762 44.0641 31.8529 44.0049 32.2676 44.0049C32.7669 44.0049 33.207 44.0895 33.5879 44.2588C33.973 44.4281 34.2734 44.6841 34.4893 45.0269C34.7093 45.3654 34.8193 45.7907 34.8193 46.3027V49.502C34.8193 49.7305 34.8384 49.9738 34.8765 50.2319C34.9188 50.4901 34.9801 50.7122 35.0605 50.8984V51H33.8354C33.7762 50.8646 33.7297 50.6847 33.6958 50.4604C33.6619 50.2319 33.645 50.0203 33.645 49.8257ZM33.8481 46.8359L33.8608 47.6611H32.6738C32.3395 47.6611 32.0412 47.6886 31.7788 47.7437C31.5164 47.7944 31.2964 47.8727 31.1187 47.9785C30.9409 48.0843 30.8055 48.2176 30.7124 48.3784C30.6193 48.535 30.5728 48.7191 30.5728 48.9307C30.5728 49.1465 30.6214 49.3433 30.7188 49.521C30.8161 49.6987 30.9621 49.8405 31.1567 49.9463C31.3556 50.0479 31.599 50.0986 31.8867 50.0986C32.2464 50.0986 32.5638 50.0225 32.8389 49.8701C33.1139 49.7178 33.3319 49.5316 33.4927 49.3115C33.6577 49.0915 33.7466 48.8778 33.7593 48.6704L34.2607 49.2354C34.2311 49.4131 34.1507 49.6099 34.0195 49.8257C33.8883 50.0415 33.7127 50.2489 33.4927 50.4478C33.2769 50.6424 33.0187 50.8053 32.7183 50.9365C32.422 51.0635 32.0877 51.127 31.7153 51.127C31.2498 51.127 30.8415 51.036 30.4902 50.854C30.1432 50.672 29.8724 50.4287 29.6777 50.124C29.4873 49.8151 29.3921 49.4702 29.3921 49.0894C29.3921 48.7212 29.464 48.3975 29.6079 48.1182C29.7518 47.8346 29.9591 47.5998 30.23 47.4136C30.5008 47.2231 30.8267 47.0793 31.2075 46.9819C31.5884 46.8846 32.0137 46.8359 32.4834 46.8359H33.8481ZM39.542 44.1318V45.0332H35.8286V44.1318H39.542ZM37.0854 42.4624H38.2598V49.2988C38.2598 49.5316 38.2957 49.7072 38.3677 49.8257C38.4396 49.9442 38.5327 50.0225 38.647 50.0605C38.7612 50.0986 38.884 50.1177 39.0151 50.1177C39.1125 50.1177 39.214 50.1092 39.3198 50.0923C39.4299 50.0711 39.5124 50.0542 39.5674 50.0415L39.5737 51C39.4806 51.0296 39.3579 51.0571 39.2056 51.0825C39.0575 51.1121 38.8776 51.127 38.666 51.127C38.3783 51.127 38.1138 51.0698 37.8726 50.9556C37.6313 50.8413 37.4388 50.6509 37.2949 50.3843C37.1553 50.1134 37.0854 49.7495 37.0854 49.2925V42.4624ZM44.9185 49.1782C44.9185 49.009 44.8804 48.8524 44.8042 48.7085C44.7323 48.5604 44.582 48.4271 44.3535 48.3086C44.1292 48.1859 43.7907 48.0801 43.3379 47.9912C42.957 47.9108 42.6121 47.8156 42.3032 47.7056C41.9985 47.5955 41.7383 47.4622 41.5225 47.3057C41.3109 47.1491 41.1479 46.965 41.0337 46.7534C40.9194 46.5418 40.8623 46.2943 40.8623 46.0107C40.8623 45.7399 40.9215 45.4839 41.04 45.2427C41.1628 45.0015 41.3341 44.7878 41.5542 44.6016C41.7785 44.4154 42.0472 44.2694 42.3604 44.1636C42.6735 44.0578 43.0226 44.0049 43.4077 44.0049C43.9578 44.0049 44.4276 44.1022 44.8169 44.2969C45.2062 44.4915 45.5046 44.7518 45.7119 45.0776C45.9193 45.3993 46.0229 45.7568 46.0229 46.1504H44.8486C44.8486 45.96 44.7915 45.7759 44.6772 45.5981C44.5672 45.4162 44.4043 45.266 44.1885 45.1475C43.9769 45.029 43.7166 44.9697 43.4077 44.9697C43.0819 44.9697 42.8174 45.0205 42.6143 45.1221C42.4154 45.2194 42.2694 45.3442 42.1763 45.4966C42.0874 45.6489 42.043 45.8097 42.043 45.979C42.043 46.106 42.0641 46.2202 42.1064 46.3218C42.153 46.4191 42.2334 46.5101 42.3477 46.5947C42.4619 46.6751 42.6227 46.7513 42.8301 46.8232C43.0374 46.8952 43.3019 46.9671 43.6235 47.0391C44.1864 47.166 44.6497 47.3184 45.0137 47.4961C45.3776 47.6738 45.6484 47.8918 45.8262 48.1499C46.0039 48.408 46.0928 48.7212 46.0928 49.0894C46.0928 49.3898 46.0293 49.6649 45.9023 49.9146C45.7796 50.1642 45.5998 50.38 45.3628 50.562C45.13 50.7397 44.8507 50.8794 44.5249 50.981C44.2033 51.0783 43.8415 51.127 43.4395 51.127C42.8343 51.127 42.3223 51.019 41.9033 50.8032C41.4844 50.5874 41.167 50.3081 40.9512 49.9653C40.7354 49.6226 40.6274 49.2607 40.6274 48.8799H41.8081C41.825 49.2015 41.9181 49.4575 42.0874 49.6479C42.2567 49.8341 42.464 49.9674 42.7095 50.0479C42.9549 50.124 43.1982 50.1621 43.4395 50.1621C43.7611 50.1621 44.0298 50.1198 44.2456 50.0352C44.4657 49.9505 44.6328 49.8341 44.7471 49.686C44.8613 49.5379 44.9185 49.3687 44.9185 49.1782ZM51.2344 42.5767L48.1748 51H46.9243L50.4473 41.7578H51.2534L51.2344 42.5767ZM53.7988 51L50.7329 42.5767L50.7139 41.7578H51.52L55.0557 51H53.7988ZM53.6401 47.5786V48.5815H48.4478V47.5786H53.6401ZM57.29 45.4521V53.6406H56.1094V44.1318H57.1885L57.29 45.4521ZM61.9175 47.5088V47.6421C61.9175 48.1414 61.8582 48.6048 61.7397 49.0322C61.6213 49.4554 61.4478 49.8236 61.2192 50.1367C60.995 50.4499 60.7178 50.6932 60.3877 50.8667C60.0576 51.0402 59.6789 51.127 59.2515 51.127C58.8156 51.127 58.4305 51.055 58.0962 50.9111C57.7619 50.7673 57.4784 50.5578 57.2456 50.2827C57.0129 50.0076 56.8267 49.6776 56.687 49.2925C56.5516 48.9074 56.4585 48.4736 56.4077 47.9912V47.2803C56.4585 46.7725 56.5537 46.3175 56.6934 45.9155C56.833 45.5135 57.0171 45.1707 57.2456 44.8872C57.4784 44.5994 57.7598 44.3815 58.0898 44.2334C58.4199 44.0811 58.8008 44.0049 59.2324 44.0049C59.6641 44.0049 60.047 44.0895 60.3813 44.2588C60.7157 44.4238 60.9971 44.6608 61.2256 44.9697C61.4541 45.2786 61.6255 45.6489 61.7397 46.0806C61.8582 46.508 61.9175 46.984 61.9175 47.5088ZM60.7368 47.6421V47.5088C60.7368 47.166 60.7008 46.8444 60.6289 46.5439C60.557 46.2393 60.4448 45.9727 60.2925 45.7441C60.1444 45.5114 59.9539 45.3294 59.7212 45.1982C59.4884 45.0628 59.2113 44.9951 58.8896 44.9951C58.5934 44.9951 58.3353 45.0459 58.1152 45.1475C57.8994 45.249 57.7153 45.3866 57.563 45.5601C57.4106 45.7293 57.2858 45.924 57.1885 46.144C57.0954 46.3599 57.0256 46.5841 56.979 46.8169V48.4609C57.0636 48.7572 57.1821 49.0365 57.3345 49.2988C57.4868 49.557 57.6899 49.7664 57.9438 49.9272C58.1978 50.0838 58.5173 50.1621 58.9023 50.1621C59.2197 50.1621 59.4927 50.0965 59.7212 49.9653C59.9539 49.8299 60.1444 49.6458 60.2925 49.4131C60.4448 49.1803 60.557 48.9137 60.6289 48.6133C60.7008 48.3086 60.7368 47.9849 60.7368 47.6421ZM64.5898 45.4521V53.6406H63.4092V44.1318H64.4883L64.5898 45.4521ZM69.2173 47.5088V47.6421C69.2173 48.1414 69.158 48.6048 69.0396 49.0322C68.9211 49.4554 68.7476 49.8236 68.519 50.1367C68.2948 50.4499 68.0176 50.6932 67.6875 50.8667C67.3574 51.0402 66.9787 51.127 66.5513 51.127C66.1154 51.127 65.7303 51.055 65.396 50.9111C65.0617 50.7673 64.7782 50.5578 64.5454 50.2827C64.3127 50.0076 64.1265 49.6776 63.9868 49.2925C63.8514 48.9074 63.7583 48.4736 63.7075 47.9912V47.2803C63.7583 46.7725 63.8535 46.3175 63.9932 45.9155C64.1328 45.5135 64.3169 45.1707 64.5454 44.8872C64.7782 44.5994 65.0596 44.3815 65.3896 44.2334C65.7197 44.0811 66.1006 44.0049 66.5322 44.0049C66.9639 44.0049 67.3468 44.0895 67.6812 44.2588C68.0155 44.4238 68.2969 44.6608 68.5254 44.9697C68.7539 45.2786 68.9253 45.6489 69.0396 46.0806C69.158 46.508 69.2173 46.984 69.2173 47.5088ZM68.0366 47.6421V47.5088C68.0366 47.166 68.0007 46.8444 67.9287 46.5439C67.8568 46.2393 67.7446 45.9727 67.5923 45.7441C67.4442 45.5114 67.2537 45.3294 67.021 45.1982C66.7882 45.0628 66.5111 44.9951 66.1895 44.9951C65.8932 44.9951 65.6351 45.0459 65.415 45.1475C65.1992 45.249 65.0151 45.3866 64.8628 45.5601C64.7104 45.7293 64.5856 45.924 64.4883 46.144C64.3952 46.3599 64.3254 46.5841 64.2788 46.8169V48.4609C64.3634 48.7572 64.4819 49.0365 64.6343 49.2988C64.7866 49.557 64.9897 49.7664 65.2437 49.9272C65.4976 50.0838 65.8171 50.1621 66.2021 50.1621C66.5195 50.1621 66.7925 50.0965 67.021 49.9653C67.2537 49.8299 67.4442 49.6458 67.5923 49.4131C67.7446 49.1803 67.8568 48.9137 67.9287 48.6133C68.0007 48.3086 68.0366 47.9849 68.0366 47.6421Z" fill="white"/>
</g>
<g filter="url(#filter1_d_1_3572)">
<rect x="104" y="4" width="60" height="60" rx="30" fill="#25D366" shape-rendering="crispEdges"/>
<path d="M139.985 36.6073C139.652 36.4498 138.06 35.6623 137.762 35.5398C137.465 35.4173 137.255 35.3823 137.027 35.7148C136.8 36.0473 136.187 36.7648 135.995 36.9923C135.802 37.2198 135.627 37.2373 135.295 36.9923C134.34 36.6091 133.458 36.0645 132.687 35.3823C131.99 34.7257 131.399 33.964 130.937 33.1248C130.745 32.8098 130.937 32.6348 131.077 32.4598C131.217 32.2848 131.392 32.0923 131.567 31.8998C131.695 31.7333 131.801 31.551 131.882 31.3573C131.926 31.2673 131.948 31.1686 131.948 31.0686C131.948 30.9686 131.926 30.8699 131.882 30.7798C131.882 30.6223 131.147 29.0298 130.867 28.3823C130.587 27.7348 130.342 27.8223 130.15 27.8223H129.45C129.116 27.8353 128.802 27.9801 128.575 28.2248C128.209 28.5742 127.919 28.9955 127.723 29.4623C127.527 29.9291 127.43 30.4312 127.437 30.9373C127.527 32.1798 127.984 33.3676 128.75 34.3498C130.156 36.4383 132.079 38.1266 134.332 39.2498C135.102 39.5823 135.697 39.7748 136.17 39.9323C136.833 40.1329 137.535 40.1748 138.217 40.0548C138.671 39.9628 139.101 39.7787 139.48 39.5138C139.859 39.2489 140.18 38.9088 140.422 38.5148C140.624 38.0282 140.691 37.4961 140.615 36.9748C140.527 36.8523 140.317 36.7648 139.985 36.6073Z" fill="white"/>
<path d="M143.257 24.69C142.047 23.4683 140.605 22.5013 139.015 21.8461C137.425 21.1908 135.72 20.8606 134 20.875C131.722 20.8869 129.487 21.4963 127.518 22.6423C125.549 23.7882 123.916 25.4307 122.78 27.4056C121.645 29.3806 121.048 31.6188 121.048 33.8968C121.048 36.1748 121.646 38.4129 122.782 40.3875L121.032 47.125L127.927 45.375C129.834 46.4122 131.97 46.9538 134.14 46.95H134C136.586 46.9668 139.119 46.213 141.275 44.7846C143.432 43.3562 145.113 41.318 146.107 38.9299C147.1 36.5417 147.359 33.9119 146.852 31.3758C146.344 28.8396 145.093 26.5121 143.257 24.69ZM134 44.71C132.058 44.7115 130.153 44.1852 128.487 43.1875L128.102 42.96L124.007 44.0275L125.092 40.0375L124.847 39.635C123.45 37.3842 122.927 34.6986 123.378 32.0879C123.829 29.4772 125.223 27.123 127.295 25.4718C129.367 23.8207 131.973 22.9876 134.619 23.1306C137.264 23.2735 139.765 24.3826 141.647 26.2475C142.656 27.2483 143.456 28.4399 144 29.7528C144.544 31.0658 144.821 32.4738 144.815 33.895C144.81 36.7619 143.669 39.51 141.642 41.5372C139.615 43.5644 136.867 44.7053 134 44.71Z" fill="white"/>
</g>
<defs>
<filter id="filter0_d_1_3572" x="0" y="0" width="106" height="69" filterUnits="userSpaceOnUse" color-interpolation-filters="sRGB">
<feFlood flood-opacity="0" result="BackgroundImageFix"/>
<feColorMatrix in="SourceAlpha" type="matrix" values="0 0 0 0 0 0 0 0 0 0 0 0 0 0 0 0 0 0 127 0" result="hardAlpha"/>
<feOffset dx="2" dy="2"/>
<feGaussianBlur stdDeviation="1.5"/>
<feComposite in2="hardAlpha" operator="out"/>
<feColorMatrix type="matrix" values="0 0 0 0 0.6 0 0 0 0 0.6 0 0 0 0 0.6 0 0 0 1 0"/>
<feBlend mode="normal" in2="BackgroundImageFix" result="effect1_dropShadow_1_3572"/>
<feBlend mode="normal" in="SourceGraphic" in2="effect1_dropShadow_1_3572" result="shape"/>
</filter>
<filter id="filter1_d_1_3572" x="103" y="3" width="64" height="64" filterUnits="userSpaceOnUse" color-interpolation-filters="sRGB">
<feFlood flood-opacity="0" result="BackgroundImageFix"/>
<feColorMatrix in="SourceAlpha" type="matrix" values="0 0 0 0 0 0 0 0 0 0 0 0 0 0 0 0 0 0 127 0" result="hardAlpha"/>
<feOffset dx="1" dy="1"/>
<feGaussianBlur stdDeviation="1"/>
<feComposite in2="hardAlpha" operator="out"/>
<feColorMatrix type="matrix" values="0 0 0 0 0.533333 0 0 0 0 0.533333 0 0 0 0 0.533333 0 0 0 1 0"/>
<feBlend mode="normal" in2="BackgroundImageFix" result="effect1_dropShadow_1_3572"/>
<feBlend mode="normal" in="SourceGraphic" in2="effect1_dropShadow_1_3572" result="shape"/>
</filter>
</defs>
</svg>
