<svg width="98" height="67" viewBox="0 0 98 67" fill="none" xmlns="http://www.w3.org/2000/svg">
<path fill-rule="evenodd" clip-rule="evenodd" d="M90.9106 0.112581C89.1998 0.542402 87.5907 2.00248 87.0567 3.60951C86.3629 5.69783 86.8332 7.7523 88.3538 9.27368C91.0756 11.997 95.4894 11.2102 97.1493 7.70567C98.0291 5.84755 97.655 3.38726 96.2375 1.71029C95.201 0.484378 92.5707 -0.304633 90.9106 0.112581ZM0 24.2837V47.5966H4.14223H8.28446V24.2837V0.97084H4.14223H0V24.2837ZM26.0476 13.9145C20.3775 14.9444 15.9245 18.1194 13.3804 22.9466C10.503 28.4063 10.7821 35.4516 14.0777 40.5535C15.1136 42.1569 17.1925 44.3007 18.6582 45.2765C24.1473 48.9315 31.5653 49.4323 37.3287 46.537C39.2601 45.5668 40.068 44.9938 41.6622 43.4638C45.0262 40.2353 46.7682 36.0189 46.7682 31.1049C46.7682 23.0215 41.6988 16.3444 34.0215 14.3158C32.6439 13.9518 31.891 13.8682 29.5997 13.824C28.0809 13.7948 26.4825 13.8356 26.0476 13.9145ZM63.6711 14.0081C56.7234 15.32 51.2718 20.6298 49.8638 27.4565C49.4632 29.3987 49.4313 32.5221 49.7927 34.4122C50.8428 39.9033 53.991 44.0567 58.9405 46.4795C63.0881 48.5099 67.629 48.9558 72.1928 47.7809C76.7189 46.6157 80.9366 43.2675 82.9749 39.2212C85.4204 34.367 85.5866 28.3681 83.3983 23.9383C82.9526 23.036 82.5659 22.2526 82.5389 22.1971C82.5118 22.1417 82.958 21.9545 83.5301 21.7811L84.5705 21.466V18.0397V14.6132H78.73C73.3232 14.6132 72.788 14.5861 71.5242 14.2471C69.7408 13.7687 65.605 13.6429 63.6711 14.0081ZM88.0224 31.1049V47.5966H92.1646H96.3068V31.1049V14.6132H92.1646H88.0224V31.1049ZM32.123 22.2548C35.4948 23.4812 37.5711 25.9117 38.2671 29.4466C38.5075 30.6673 38.5205 31.1101 38.3507 32.2937C37.6948 36.8625 33.7559 40.3342 29.2198 40.3416C27.5463 40.3444 26.3857 40.0826 24.93 39.3742C20.3618 37.1509 18.5303 31.3662 20.9045 26.6602C22.022 24.4452 24.7369 22.38 27.1834 21.884C28.5481 21.6074 30.8097 21.7772 32.123 22.2548ZM69.1235 21.9543C71.5563 22.4676 73.7486 23.98 75.1107 26.0845C77.3385 29.5262 76.88 34.3977 74.0486 37.3678C72.2645 39.2392 70.3081 40.1448 67.7211 40.2962C65.8444 40.4062 64.7864 40.1952 63.0178 39.3582C59.054 37.4821 57.0173 32.5461 58.4041 28.1768C58.9174 26.5594 59.6072 25.4694 60.8954 24.2399C63.1088 22.1275 66.0598 21.308 69.1235 21.9543ZM49.363 49.9711C49.3673 50.8749 49.7473 53.386 50.0614 54.5853C51.009 58.2038 53.5721 61.851 56.6628 63.9786C58.0083 64.9048 60.5729 66.0506 62.3923 66.5381C63.9621 66.9589 64.3992 67.0007 67.2249 67C69.8737 66.9995 70.5308 66.9446 71.683 66.6266C75.2543 65.6418 77.9514 64.075 80.2395 61.6565C82.9956 58.7433 84.4549 55.3681 84.8439 51.0072L84.9633 49.6689H80.711H76.4587V50.3233C76.4587 52.9066 74.6036 56.0012 72.07 57.6446C69.1673 59.5276 65.1126 59.528 62.2073 57.6453C60.874 56.7814 59.5216 55.2829 58.8616 53.9384C58.3654 52.9273 57.8283 50.9229 57.8216 50.0574L57.8186 49.6689H53.5901C49.6774 49.6689 49.3617 49.6915 49.363 49.9711Z" fill="#00A9E0"/>
</svg>
