<svg width="221" height="67" viewBox="0 0 221 67" fill="none" xmlns="http://www.w3.org/2000/svg">
<path fill-rule="evenodd" clip-rule="evenodd" d="M90.9106 0.122347C89.1998 0.552167 87.5907 2.01224 87.0567 3.61928C86.3629 5.70759 86.8332 7.76206 88.3538 9.28345C91.0756 12.0067 95.4894 11.22 97.1493 7.71544C98.0291 5.85731 97.655 3.39703 96.2375 1.72006C95.201 0.494144 92.5707 -0.294867 90.9106 0.122347ZM189.162 24.2071V47.6064H193.304H197.446L197.448 38.4971C197.448 33.1355 197.521 28.9412 197.625 28.3021C197.913 26.5251 198.421 25.4156 199.457 24.2954C201.1 22.5198 203.118 21.7805 205.98 21.9062C207.281 21.9634 207.736 22.0651 208.692 22.5134C209.952 23.1038 211.085 24.1498 211.64 25.2364C212.516 26.9512 212.52 27.0028 212.59 37.6336L212.655 47.6064H216.787H220.919L220.918 37.3746C220.917 26.4681 220.837 25.1326 220.047 22.7431C218.505 18.0841 215.114 14.9764 210.516 14.0085C209.826 13.8633 208.402 13.7462 207.328 13.7462C203.583 13.7462 200.657 14.819 198.18 17.0998L197.446 17.7754V9.29156V0.807918H193.304H189.162V24.2071ZM0 24.2935V47.6064H4.14223H8.28446V24.2935V0.980606H4.14223H0V24.2935ZM104.074 9.61501V14.623H101.916H99.7587V18.4221V22.2212H101.916H104.074V34.9138V47.6064H108.216H112.358V34.9138V22.2212H114.602H116.845V18.4221V14.623H114.602H112.358V9.61501V4.60705H108.216H104.074V9.61501ZM170.608 13.7916C168.656 13.9256 166.468 14.5048 164.531 15.4002C157.834 18.4962 153.822 25.5089 154.631 32.7044C155.112 36.9816 156.764 40.5275 159.588 43.3475C166.504 50.2533 178.317 50.1495 185.275 43.1222L186.479 41.9056L185.793 41.2468C185.415 40.8843 184.078 39.591 182.823 38.3727L180.54 36.1575L179.63 37.0408C177.256 39.3457 174.974 40.3535 172.13 40.3535C167.742 40.3535 164.201 37.5302 163.186 33.2237C161.907 27.7985 165.477 22.5688 170.93 21.8793C174.035 21.4868 176.961 22.5676 179.63 25.093L180.612 26.0226L183.42 23.2173C184.964 21.6743 186.228 20.3313 186.228 20.2327C186.228 20.0179 184.18 18.0037 183.207 17.2623C179.778 14.6475 175.461 13.4583 170.608 13.7916ZM26.0476 13.9243C20.3775 14.9542 15.9245 18.1292 13.3804 22.9564C10.503 28.4161 10.7821 35.4614 14.0777 40.5633C15.1136 42.1667 17.1925 44.3104 18.6582 45.2863C24.1473 48.9412 31.5653 49.442 37.3287 46.5468C39.2601 45.5766 40.068 45.0036 41.6622 43.4736C45.0262 40.245 46.7682 36.0287 46.7682 31.1147C46.7682 23.0313 41.6988 16.3542 34.0215 14.3256C32.6439 13.9616 31.891 13.878 29.5997 13.8338C28.0809 13.8046 26.4825 13.8453 26.0476 13.9243ZM63.6711 14.0179C56.7234 15.3298 51.2718 20.6396 49.8638 27.4663C49.4632 29.4085 49.4313 32.5319 49.7927 34.422C50.8428 39.9131 53.991 44.0664 58.9405 46.4893C63.0881 48.5197 67.629 48.9656 72.1928 47.7906C76.7189 46.6255 80.9366 43.2772 82.9749 39.231C85.4204 34.3767 85.5866 28.3779 83.3983 23.9481C82.9526 23.0458 82.5659 22.2623 82.5389 22.2069C82.5118 22.1515 82.958 21.9643 83.5301 21.7909L84.5705 21.4757V18.0494V14.623H78.73C73.3232 14.623 72.788 14.5958 71.5242 14.2569C69.7408 13.7785 65.605 13.6526 63.6711 14.0179ZM131.516 14.0172C124.39 15.447 119.231 20.9219 118.048 28.3073C117.737 30.2495 117.917 34.3527 118.388 36.0914C119.728 41.0257 122.824 44.8088 127.116 46.7562C134.187 49.9641 143.549 48.5087 149.136 43.333C149.697 42.8136 150.156 42.2988 150.156 42.1891C150.156 41.9712 144.97 36.727 144.755 36.727C144.682 36.727 144.13 37.1449 143.528 37.6557C139.448 41.1193 134.879 41.9683 130.964 39.9907C129.178 39.089 127.319 36.8194 126.769 34.8706L126.66 34.4821H139.357H152.054V33.1189C152.054 22.9809 147.108 15.7544 139.027 14.0856C137.174 13.7029 133.259 13.6673 131.516 14.0172ZM88.0224 31.1147V47.6064H92.1646H96.3068V31.1147V14.623H92.1646H88.0224V31.1147ZM137.974 21.5199C139.294 21.9817 140.456 22.7346 141.355 23.7108C142.089 24.5076 142.96 26.1803 143.165 27.186L143.28 27.7472H134.823H126.366L126.541 27.0997C127.278 24.3786 129.907 21.9154 132.769 21.2623C134.213 20.9328 136.639 21.053 137.974 21.5199ZM32.123 22.2646C35.4948 23.491 37.5711 25.9214 38.2671 29.4563C38.5075 30.6771 38.5205 31.1198 38.3507 32.3034C37.6948 36.8723 33.7559 40.344 29.2198 40.3514C27.5463 40.3542 26.3857 40.0924 24.93 39.384C20.3618 37.1606 18.5303 31.3759 20.9045 26.67C22.022 24.4549 24.7369 22.3898 27.1834 21.8938C28.5481 21.6172 30.8097 21.7869 32.123 22.2646ZM69.1235 21.9641C71.5563 22.4773 73.7486 23.9897 75.1107 26.0943C77.3385 29.5359 76.88 34.4075 74.0486 37.3775C72.2645 39.249 70.3081 40.1545 67.7211 40.306C65.8444 40.416 64.7864 40.205 63.0178 39.3679C59.054 37.4919 57.0173 32.5559 58.4041 28.1866C58.9174 26.5692 59.6072 25.4792 60.8954 24.2496C63.1088 22.1373 66.0598 21.3177 69.1235 21.9641ZM49.363 49.9808C49.3673 50.8847 49.7473 53.3957 50.0614 54.5951C51.009 58.2136 53.5722 61.8607 56.6628 63.9884C58.0083 64.9145 60.5729 66.0603 62.3923 66.5478C63.9621 66.9687 64.3992 67.0105 67.2249 67.0098C69.8737 67.0092 70.5308 66.9543 71.683 66.6364C75.2543 65.6516 77.9514 64.0848 80.2395 61.6663C82.9956 58.753 84.4549 55.3778 84.8439 51.017L84.9633 49.6786H80.711H76.4587V50.3331C76.4587 52.9164 74.6036 56.0109 72.07 57.6544C69.1673 59.5374 65.1126 59.5377 62.2073 57.6551C60.874 56.7911 59.5216 55.2927 58.8616 53.9482C58.3654 52.9371 57.8283 50.9327 57.8216 50.0672L57.8186 49.6786H53.5901C49.6774 49.6786 49.3617 49.7012 49.363 49.9808Z" fill="#333333"/>
</svg>
